<svg width="563" height="105" viewBox="0 0 563 105" fill="none" xmlns="http://www.w3.org/2000/svg">
<path d="M96.2248 77.88C96.2248 81.208 95.5208 83.576 94.1128 84.984C92.7688 86.328 90.4328 87 87.1048 87H75.3928C73.5368 87 72.1928 86.552 71.3608 85.656C70.5928 84.696 70.0168 83.288 69.6328 81.432H84.0328C86.0168 81.432 87.2648 81.016 87.7768 80.184C88.2888 79.352 88.5448 77.944 88.5448 75.96V60.408C88.5448 58.424 88.2568 57.016 87.6808 56.184C87.1688 55.352 85.8248 54.936 83.6488 54.936H78.7528C75.4248 54.936 73.0568 54.264 71.6488 52.92C70.3048 51.512 69.6328 49.144 69.6328 45.816V28.92C69.6328 25.592 70.3048 23.256 71.6488 21.912C73.0568 20.504 75.4248 19.8 78.7528 19.8H90.1768C92.0328 19.8 93.3448 20.28 94.1128 21.24C94.9448 22.136 95.5528 23.512 95.9368 25.368H81.8248C79.8408 25.368 78.5928 25.784 78.0807 26.616C77.5688 27.448 77.3128 28.856 77.3128 30.84V43.896C77.3128 45.88 77.5688 47.288 78.0807 48.12C78.5928 48.952 79.8408 49.368 81.8248 49.368H87.1048C90.4328 49.368 92.7688 50.072 94.1128 51.48C95.5208 52.824 96.2248 55.16 96.2248 58.488V77.88Z" fill="#F9F9F9"/>
<path d="M124.599 82.824V85.056C124.599 85.824 124.479 86.352 124.239 86.64C124.047 86.88 123.567 87 122.799 87H111.927C109.431 87 107.655 86.496 106.599 85.488C105.591 84.432 105.087 82.656 105.087 80.16V57.264C105.087 54.768 105.591 53.016 106.599 52.008C107.655 50.952 109.431 50.424 111.927 50.424H119.847C122.343 50.424 124.095 50.952 125.103 52.008C126.159 53.016 126.687 54.768 126.687 57.264V65.328C126.687 67.824 126.159 69.6 125.103 70.656C124.095 71.664 122.343 72.168 119.847 72.168H115.527C114.759 72.168 114.255 72.048 114.015 71.808C113.823 71.52 113.727 70.992 113.727 70.224V67.992H117.903C119.391 67.992 120.327 67.68 120.711 67.056C121.095 66.432 121.287 65.376 121.287 63.888V58.344C121.287 56.856 121.047 55.872 120.567 55.392C120.087 54.864 119.103 54.6 117.615 54.6H114.519C112.935 54.6 111.927 54.888 111.495 55.464C111.063 55.992 110.847 57.072 110.847 58.704V78.72C110.847 80.208 111.039 81.264 111.423 81.888C111.807 82.512 112.743 82.824 114.231 82.824H124.599ZM134.973 52.368C134.973 51.6 135.093 51.096 135.333 50.856C135.621 50.568 136.149 50.424 136.917 50.424H140.733V95.496C140.733 97.464 140.253 98.856 139.293 99.672C138.333 100.488 136.893 101.088 134.973 101.472V52.368ZM134.685 42.72C134.685 41.952 134.805 41.448 135.045 41.208C135.333 40.92 135.861 40.776 136.629 40.776H141.021V44.592C141.021 45.36 140.877 45.888 140.589 46.176C140.349 46.416 139.845 46.536 139.077 46.536H134.685V42.72ZM166.432 58.704C166.432 57.216 166.24 56.16 165.856 55.536C165.472 54.912 164.536 54.6 163.048 54.6H150.592C150.88 53.208 151.312 52.176 151.888 51.504C152.512 50.784 153.52 50.424 154.912 50.424H165.352C167.848 50.424 169.6 50.952 170.608 52.008C171.664 53.016 172.192 54.768 172.192 57.264V87H168.376C167.608 87 167.08 86.88 166.792 86.64C166.552 86.352 166.432 85.824 166.432 85.056V58.704ZM155.992 87C153.496 87 151.72 86.496 150.664 85.488C149.656 84.432 149.152 82.656 149.152 80.16V72.24C149.152 69.744 149.656 67.992 150.664 66.984C151.72 65.928 153.496 65.4 155.992 65.4H162.112C163.504 65.4 164.488 65.76 165.064 66.48C165.688 67.152 166.144 68.184 166.432 69.576H158.296C156.808 69.576 155.872 69.888 155.488 70.512C155.104 71.136 154.912 72.192 154.912 73.68V79.296C154.912 80.784 155.176 81.744 155.704 82.176C156.28 82.608 157.312 82.824 158.8 82.824H163.552V85.056C163.552 85.824 163.432 86.352 163.192 86.64C163 86.88 162.52 87 161.752 87H155.992ZM212.574 50.424C215.07 50.424 216.822 50.952 217.83 52.008C218.886 53.016 219.414 54.768 219.414 57.264V80.16C219.414 82.656 218.886 84.432 217.83 85.488C216.822 86.496 215.07 87 212.574 87H205.734C204.342 87 203.334 86.664 202.71 85.992C202.134 85.272 201.702 84.216 201.414 82.824V85.056C201.414 85.824 201.27 86.352 200.982 86.64C200.742 86.88 200.238 87 199.47 87H195.654V38.544C195.654 37.776 195.774 37.272 196.014 37.032C196.302 36.744 196.83 36.6 197.598 36.6H201.414V82.824H210.27C211.758 82.824 212.694 82.512 213.078 81.888C213.462 81.264 213.654 80.208 213.654 78.72V58.704C213.654 57.216 213.462 56.16 213.078 55.536C212.694 54.912 211.758 54.6 210.27 54.6H204.294V52.368C204.294 51.6 204.39 51.096 204.582 50.856C204.822 50.568 205.326 50.424 206.094 50.424H212.574ZM247.997 82.824V85.056C247.997 85.824 247.877 86.352 247.637 86.64C247.445 86.88 246.965 87 246.197 87H235.325C232.829 87 231.053 86.496 229.997 85.488C228.989 84.432 228.485 82.656 228.485 80.16V57.264C228.485 54.768 228.989 53.016 229.997 52.008C231.053 50.952 232.829 50.424 235.325 50.424H243.245C245.741 50.424 247.493 50.952 248.501 52.008C249.557 53.016 250.085 54.768 250.085 57.264V65.328C250.085 67.824 249.557 69.6 248.501 70.656C247.493 71.664 245.741 72.168 243.245 72.168H238.925C238.157 72.168 237.653 72.048 237.413 71.808C237.221 71.52 237.125 70.992 237.125 70.224V67.992H241.301C242.789 67.992 243.725 67.68 244.109 67.056C244.493 66.432 244.685 65.376 244.685 63.888V58.344C244.685 56.856 244.445 55.872 243.965 55.392C243.485 54.864 242.501 54.6 241.013 54.6H237.917C236.333 54.6 235.325 54.888 234.893 55.464C234.461 55.992 234.245 57.072 234.245 58.704V78.72C234.245 80.208 234.437 81.264 234.821 81.888C235.205 82.512 236.141 82.824 237.629 82.824H247.997ZM281.699 85.056C281.699 85.824 281.555 86.352 281.267 86.64C281.027 86.88 280.523 87 279.755 87H275.939V58.704C275.939 57.216 275.747 56.16 275.363 55.536C274.979 54.912 274.043 54.6 272.555 54.6H264.131V85.056C264.131 85.824 263.987 86.352 263.699 86.64C263.459 86.88 262.955 87 262.187 87H258.371V52.368C258.371 51.6 258.491 51.096 258.731 50.856C259.019 50.568 259.547 50.424 260.315 50.424H264.131V54.6C264.419 53.208 264.851 52.176 265.427 51.504C266.051 50.784 267.059 50.424 268.451 50.424H274.859C277.355 50.424 279.107 50.952 280.115 52.008C281.171 53.016 281.699 54.768 281.699 57.264V85.056ZM299.267 85.056C299.267 85.824 299.123 86.352 298.835 86.64C298.595 86.88 298.091 87 297.323 87H293.507V58.704C293.507 57.216 293.315 56.16 292.931 55.536C292.547 54.912 291.611 54.6 290.123 54.6H281.483C281.771 53.208 282.203 52.176 282.779 51.504C283.403 50.784 284.411 50.424 285.803 50.424H292.427C294.923 50.424 296.675 50.952 297.683 52.008C298.739 53.016 299.267 54.768 299.267 57.264V85.056ZM336.749 85.056C336.557 85.824 336.293 86.352 335.957 86.64C335.669 86.88 335.141 87 334.373 87H330.053L320.549 52.368C320.261 51.072 320.741 50.424 321.989 50.424H325.229L331.565 73.104L333.149 81.672H333.581L335.093 73.104L340.997 52.368C341.189 51.6 341.453 51.096 341.789 50.856C342.125 50.568 342.677 50.424 343.445 50.424H346.397L336.749 85.056ZM352.865 42.72C352.865 41.952 352.985 41.448 353.225 41.208C353.513 40.92 354.041 40.776 354.809 40.776H359.201V44.592C359.201 45.36 359.057 45.888 358.769 46.176C358.529 46.416 358.025 46.536 357.257 46.536H352.865V42.72ZM358.913 50.424V85.056C358.913 85.824 358.769 86.352 358.481 86.64C358.241 86.88 357.737 87 356.969 87H353.153V52.368C353.153 51.6 353.273 51.096 353.513 50.856C353.801 50.568 354.329 50.424 355.097 50.424H358.913ZM385.19 50.424C387.686 50.424 389.438 50.952 390.446 52.008C391.502 53.016 392.03 54.768 392.03 57.264V85.056C392.03 85.824 391.886 86.352 391.598 86.64C391.358 86.88 390.854 87 390.086 87H386.27V58.704C386.27 57.216 386.078 56.16 385.694 55.536C385.31 54.912 384.374 54.6 382.886 54.6H374.03V85.056C374.03 85.824 373.886 86.352 373.598 86.64C373.358 86.88 372.854 87 372.086 87H368.27V52.368C368.27 51.6 368.39 51.096 368.63 50.856C368.918 50.568 369.446 50.424 370.214 50.424H374.03V54.6C374.318 53.208 374.75 52.176 375.326 51.504C375.95 50.784 376.958 50.424 378.35 50.424H385.19ZM424.933 36.6V85.056C424.933 85.824 424.789 86.352 424.501 86.64C424.261 86.88 423.757 87 422.989 87H419.173V38.544C419.173 37.776 419.293 37.272 419.533 37.032C419.821 36.744 420.349 36.6 421.117 36.6H424.933ZM408.013 87C405.517 87 403.741 86.496 402.685 85.488C401.677 84.432 401.173 82.656 401.173 80.16V57.264C401.173 54.768 401.677 53.016 402.685 52.008C403.741 50.952 405.517 50.424 408.013 50.424H414.853C416.245 50.424 417.229 50.784 417.805 51.504C418.429 52.176 418.885 53.208 419.173 54.6H410.317C408.829 54.6 407.893 54.912 407.509 55.536C407.125 56.16 406.933 57.216 406.933 58.704V78.72C406.933 80.208 407.125 81.264 407.509 81.888C407.893 82.512 408.829 82.824 410.317 82.824H416.293V85.056C416.293 85.824 416.173 86.352 415.933 86.64C415.741 86.88 415.261 87 414.493 87H408.013ZM434.149 57.264C434.149 54.768 434.653 53.016 435.661 52.008C436.717 50.952 438.493 50.424 440.989 50.424H451.069C453.565 50.424 455.317 50.952 456.325 52.008C457.381 53.016 457.909 54.768 457.909 57.264V80.16C457.909 82.656 457.381 84.432 456.325 85.488C455.317 86.496 453.565 87 451.069 87H440.989C438.493 87 436.717 86.496 435.661 85.488C434.653 84.432 434.149 82.656 434.149 80.16V57.264ZM443.293 54.6C441.805 54.6 440.869 54.912 440.485 55.536C440.101 56.16 439.909 57.216 439.909 58.704V78.72C439.909 80.208 440.101 81.264 440.485 81.888C440.869 82.512 441.805 82.824 443.293 82.824H448.765C450.253 82.824 451.189 82.512 451.573 81.888C451.957 81.264 452.149 80.208 452.149 78.72V58.704C452.149 57.216 451.957 56.16 451.573 55.536C451.189 54.912 450.253 54.6 448.765 54.6H443.293Z" fill="#F9F9F9"/>
<path d="M124.599 82.824H126.599V80.824H124.599V82.824ZM124.239 86.64L122.702 85.3596L122.69 85.375L122.677 85.3906L124.239 86.64ZM106.599 85.488L105.152 86.869L105.184 86.9026L105.218 86.9347L106.599 85.488ZM106.599 52.008L105.185 50.5938L105.185 50.5938L106.599 52.008ZM125.103 52.008L123.656 53.3889L123.688 53.4226L123.722 53.4547L125.103 52.008ZM125.103 70.656L126.517 72.0702L126.517 72.0702L125.103 70.656ZM114.015 71.808L112.351 72.9174L112.461 73.0822L112.601 73.2222L114.015 71.808ZM113.727 67.992V65.992H111.727V67.992H113.727ZM120.711 67.056L119.007 66.0078L119.007 66.0078L120.711 67.056ZM120.567 55.392L119.087 56.7373L119.119 56.7726L119.153 56.8062L120.567 55.392ZM111.495 55.464L113.043 56.7305L113.069 56.6978L113.095 56.664L111.495 55.464ZM111.423 81.888L109.719 82.9362L109.719 82.9362L111.423 81.888ZM122.599 82.824V85.056H126.599V82.824H122.599ZM122.599 85.056C122.599 85.3474 122.575 85.5126 122.559 85.5848C122.551 85.6173 122.55 85.6087 122.566 85.5717C122.583 85.5344 122.623 85.455 122.702 85.3596L125.775 87.9204C126.501 87.0498 126.599 85.8814 126.599 85.056H122.599ZM122.677 85.3906C122.833 85.1953 122.998 85.0875 123.096 85.0345C123.147 85.0075 123.187 84.9912 123.211 84.9822C123.236 84.9732 123.25 84.9698 123.25 84.9697C123.25 84.9696 123.241 84.972 123.219 84.9754C123.199 84.9789 123.169 84.9829 123.129 84.9867C123.049 84.9944 122.94 85 122.799 85V89C123.267 89 123.759 88.9654 124.22 88.8503C124.645 88.744 125.309 88.504 125.801 87.8894L122.677 85.3906ZM122.799 85H111.927V89H122.799V85ZM111.927 85C109.606 85 108.475 84.5142 107.98 84.0413L105.218 86.9347C106.834 88.4778 109.255 89 111.927 89V85ZM108.045 84.107C107.573 83.6117 107.087 82.4806 107.087 80.16H103.087C103.087 82.8314 103.609 85.2523 105.152 86.869L108.045 84.107ZM107.087 80.16V57.264H103.087V80.16H107.087ZM107.087 57.264C107.087 54.93 107.578 53.857 108.013 53.4222L105.185 50.5938C103.603 52.175 103.087 54.606 103.087 57.264H107.087ZM108.013 53.4222C108.509 52.9261 109.625 52.424 111.927 52.424V48.424C109.237 48.424 106.8 48.9779 105.185 50.5938L108.013 53.4222ZM111.927 52.424H119.847V48.424H111.927V52.424ZM119.847 52.424C122.161 52.424 123.219 52.9315 123.656 53.3889L126.549 50.627C124.97 48.9725 122.524 48.424 119.847 48.424V52.424ZM123.722 53.4547C124.179 53.8914 124.687 54.9493 124.687 57.264H128.687C128.687 54.5867 128.138 52.1406 126.484 50.5613L123.722 53.4547ZM124.687 57.264V65.328H128.687V57.264H124.687ZM124.687 65.328C124.687 67.6299 124.185 68.7457 123.689 69.2418L126.517 72.0702C128.133 70.4543 128.687 68.0181 128.687 65.328H124.687ZM123.689 69.2418C123.254 69.6766 122.181 70.168 119.847 70.168V74.168C122.505 74.168 124.936 73.6514 126.517 72.0702L123.689 69.2418ZM119.847 70.168H115.527V74.168H119.847V70.168ZM115.527 70.168C115.385 70.168 115.274 70.1624 115.188 70.1543C115.101 70.1462 115.053 70.1365 115.036 70.1324C115.017 70.1279 115.05 70.1336 115.115 70.1652C115.181 70.1971 115.301 70.2655 115.429 70.3938L112.601 73.2222C113.086 73.7073 113.673 73.9196 114.11 74.0236C114.567 74.1326 115.054 74.168 115.527 74.168V70.168ZM115.679 70.6986C115.743 70.7941 115.769 70.864 115.775 70.8814C115.781 70.9001 115.776 70.8894 115.767 70.8382C115.747 70.7307 115.727 70.5346 115.727 70.224H111.727C111.727 70.6814 111.755 71.1333 111.831 71.5538C111.904 71.954 112.043 72.456 112.351 72.9174L115.679 70.6986ZM115.727 70.224V67.992H111.727V70.224H115.727ZM113.727 69.992H117.903V65.992H113.727V69.992ZM117.903 69.992C118.764 69.992 119.606 69.9046 120.353 69.6554C121.112 69.4025 121.902 68.9362 122.414 68.1042L119.007 66.0078C119.135 65.7998 119.266 65.8015 119.088 65.8606C118.9 65.9234 118.53 65.992 117.903 65.992V69.992ZM122.414 68.1042C123.108 66.9772 123.287 65.4355 123.287 63.888H119.287C119.287 65.3165 119.082 65.8868 119.007 66.0078L122.414 68.1042ZM123.287 63.888V58.344H119.287V63.888H123.287ZM123.287 58.344C123.287 57.5075 123.221 56.7171 123.05 56.0161C122.883 55.3313 122.578 54.5743 121.981 53.9778L119.153 56.8062C119.036 56.6897 119.091 56.6647 119.164 56.9639C119.233 57.2469 119.287 57.6925 119.287 58.344H123.287ZM122.047 54.0467C121.461 53.4023 120.698 53.0571 119.987 52.8663C119.268 52.6734 118.461 52.6 117.615 52.6V56.6C118.256 56.6 118.686 56.6586 118.951 56.7297C119.223 56.8028 119.193 56.8537 119.087 56.7373L122.047 54.0467ZM117.615 52.6H114.519V56.6H117.615V52.6ZM114.519 52.6C113.625 52.6 112.774 52.679 112.025 52.893C111.286 53.1042 110.468 53.4995 109.895 54.264L113.095 56.664C112.953 56.8525 112.856 56.8158 113.124 56.739C113.383 56.665 113.828 56.6 114.519 56.6V52.6ZM109.947 54.1975C109.434 54.8245 109.185 55.5929 109.048 56.2778C108.905 56.9925 108.847 57.8128 108.847 58.704H112.847C112.847 57.9632 112.897 57.4275 112.97 57.0622C113.049 56.667 113.124 56.6315 113.043 56.7305L109.947 54.1975ZM108.847 58.704V78.72H112.847V58.704H108.847ZM108.847 78.72C108.847 80.2675 109.026 81.8092 109.719 82.9362L113.126 80.8398C113.052 80.7188 112.847 80.1485 112.847 78.72H108.847ZM109.719 82.9362C110.231 83.7682 111.022 84.2345 111.78 84.4874C112.528 84.7366 113.37 84.824 114.231 84.824V80.824C113.604 80.824 113.234 80.7554 113.045 80.6926C112.868 80.6335 112.998 80.6318 113.126 80.8398L109.719 82.9362ZM114.231 84.824H124.599V80.824H114.231V84.824ZM135.333 50.856L133.919 49.4418L133.919 49.4418L135.333 50.856ZM140.733 50.424H142.733V48.424H140.733V50.424ZM139.293 99.672L140.588 101.196L140.588 101.196L139.293 99.672ZM134.973 101.472H132.973V103.912L135.365 103.433L134.973 101.472ZM135.045 41.208L133.631 39.7938L133.631 39.7938L135.045 41.208ZM141.021 40.776H143.021V38.776H141.021V40.776ZM140.589 46.176L139.175 44.7618L139.175 44.7618L140.589 46.176ZM134.685 46.536H132.685V48.536H134.685V46.536ZM136.973 52.368C136.973 52.2267 136.979 52.1149 136.987 52.0293C136.995 51.9426 137.004 51.8946 137.009 51.8772C137.013 51.8583 137.007 51.8914 136.976 51.9566C136.944 52.0226 136.875 52.1419 136.747 52.2702L133.919 49.4418C133.434 49.9269 133.221 50.514 133.117 50.9508C133.008 51.4083 132.973 51.8952 132.973 52.368H136.973ZM136.747 52.2702C136.575 52.4427 136.432 52.4723 136.471 52.4615C136.486 52.4574 136.529 52.4474 136.607 52.4388C136.684 52.4302 136.786 52.424 136.917 52.424V48.424C136.038 48.424 134.8 48.5607 133.919 49.4418L136.747 52.2702ZM136.917 52.424H140.733V48.424H136.917V52.424ZM138.733 50.424V95.496H142.733V50.424H138.733ZM138.733 95.496C138.733 97.2062 138.309 97.8831 137.998 98.1481L140.588 101.196C142.197 99.8289 142.733 97.7218 142.733 95.496H138.733ZM137.998 98.1481C137.402 98.6547 136.335 99.1599 134.581 99.5108L135.365 103.433C137.45 103.016 139.264 102.321 140.588 101.196L137.998 98.1481ZM136.973 101.472V52.368H132.973V101.472H136.973ZM136.685 42.72C136.685 42.5787 136.691 42.4669 136.699 42.3813C136.707 42.2946 136.716 42.2466 136.721 42.2292C136.725 42.2103 136.719 42.2434 136.688 42.3086C136.656 42.3746 136.587 42.4939 136.459 42.6222L133.631 39.7938C133.146 40.2789 132.933 40.866 132.829 41.3028C132.72 41.7603 132.685 42.2472 132.685 42.72H136.685ZM136.459 42.6222C136.287 42.7947 136.144 42.8243 136.183 42.8135C136.198 42.8094 136.241 42.7994 136.319 42.7908C136.396 42.7822 136.498 42.776 136.629 42.776V38.776C135.75 38.776 134.512 38.9127 133.631 39.7938L136.459 42.6222ZM136.629 42.776H141.021V38.776H136.629V42.776ZM139.021 40.776V44.592H143.021V40.776H139.021ZM139.021 44.592C139.021 44.7228 139.015 44.825 139.006 44.9021C138.998 44.9799 138.988 45.0227 138.983 45.0378C138.973 45.0772 139.002 44.9343 139.175 44.7618L142.003 47.5902C142.884 46.7091 143.021 45.4708 143.021 44.592H139.021ZM139.175 44.7618C139.303 44.6335 139.422 44.5651 139.488 44.5332C139.554 44.5016 139.587 44.4959 139.568 44.5004C139.55 44.5045 139.502 44.5142 139.416 44.5223C139.33 44.5304 139.218 44.536 139.077 44.536V48.536C139.55 48.536 140.037 48.5006 140.494 48.3916C140.931 48.2876 141.518 48.0753 142.003 47.5902L139.175 44.7618ZM139.077 44.536H134.685V48.536H139.077V44.536ZM136.685 46.536V42.72H132.685V46.536H136.685ZM165.856 55.536L167.56 54.4878L167.56 54.4878L165.856 55.536ZM150.592 54.6L148.634 54.1948L148.136 56.6H150.592V54.6ZM151.888 51.504L150.377 50.1941L150.37 50.2024L151.888 51.504ZM170.608 52.008L169.162 53.3889L169.194 53.4226L169.228 53.4547L170.608 52.008ZM172.192 87V89H174.192V87H172.192ZM166.792 86.64L165.256 87.9204L165.372 88.06L165.512 88.1764L166.792 86.64ZM150.664 85.488L149.218 86.869L149.25 86.9026L149.284 86.9347L150.664 85.488ZM150.664 66.984L149.25 65.5698L149.25 65.5698L150.664 66.984ZM165.064 66.48L163.503 67.7294L163.549 67.7869L163.599 67.8409L165.064 66.48ZM166.432 69.576V71.576H168.889L168.391 69.1708L166.432 69.576ZM155.488 70.512L157.192 71.5602L157.192 71.5602L155.488 70.512ZM155.704 82.176L154.438 83.7239L154.471 83.7507L154.504 83.776L155.704 82.176ZM163.552 82.824H165.552V80.824H163.552V82.824ZM163.192 86.64L161.656 85.3596L161.643 85.375L161.631 85.3906L163.192 86.64ZM168.432 58.704C168.432 57.1565 168.253 55.6148 167.56 54.4878L164.153 56.5842C164.228 56.7052 164.432 57.2755 164.432 58.704H168.432ZM167.56 54.4878C167.048 53.6558 166.258 53.1895 165.499 52.9366C164.751 52.6874 163.91 52.6 163.048 52.6V56.6C163.675 56.6 164.046 56.6686 164.234 56.7314C164.411 56.7905 164.281 56.7922 164.153 56.5842L167.56 54.4878ZM163.048 52.6H150.592V56.6H163.048V52.6ZM152.551 55.0052C152.808 53.7643 153.146 53.1102 153.407 52.8056L150.37 50.2024C149.479 51.2418 148.953 52.6517 148.634 54.1948L152.551 55.0052ZM153.4 52.8139C153.496 52.7033 153.827 52.424 154.912 52.424V48.424C153.214 48.424 151.529 48.8647 150.377 50.1941L153.4 52.8139ZM154.912 52.424H165.352V48.424H154.912V52.424ZM165.352 52.424C167.667 52.424 168.725 52.9315 169.162 53.3889L172.055 50.627C170.476 48.9725 168.03 48.424 165.352 48.424V52.424ZM169.228 53.4547C169.685 53.8914 170.192 54.9493 170.192 57.264H174.192C174.192 54.5867 173.644 52.1406 171.989 50.5613L169.228 53.4547ZM170.192 57.264V87H174.192V57.264H170.192ZM172.192 85H168.376V89H172.192V85ZM168.376 85C168.085 85 167.92 84.9761 167.848 84.9597C167.815 84.9523 167.824 84.9514 167.861 84.9677C167.898 84.9841 167.978 85.0241 168.073 85.1036L165.512 88.1764C166.383 88.9019 167.551 89 168.376 89V85ZM168.329 85.3596C168.408 85.455 168.448 85.5344 168.465 85.5717C168.481 85.6087 168.48 85.6173 168.473 85.5848C168.456 85.5126 168.432 85.3474 168.432 85.056H164.432C164.432 85.8814 164.531 87.0498 165.256 87.9204L168.329 85.3596ZM168.432 85.056V58.704H164.432V85.056H168.432ZM155.992 85C153.672 85 152.541 84.5142 152.045 84.0413L149.284 86.9347C150.9 88.4778 153.321 89 155.992 89V85ZM152.111 84.107C151.638 83.6117 151.152 82.4806 151.152 80.16H147.152C147.152 82.8314 147.675 85.2523 149.218 86.869L152.111 84.107ZM151.152 80.16V72.24H147.152V80.16H151.152ZM151.152 72.24C151.152 69.906 151.644 68.833 152.079 68.3982L149.25 65.5698C147.669 67.151 147.152 69.582 147.152 72.24H151.152ZM152.079 68.3982C152.575 67.9021 153.691 67.4 155.992 67.4V63.4C153.302 63.4 150.866 63.9539 149.25 65.5698L152.079 68.3982ZM155.992 67.4H162.112V63.4H155.992V67.4ZM162.112 67.4C163.213 67.4 163.468 67.6855 163.503 67.7294L166.626 65.2306C165.509 63.8345 163.795 63.4 162.112 63.4V67.4ZM163.599 67.8409C163.873 68.1365 164.223 68.7663 164.474 69.9812L168.391 69.1708C168.066 67.6017 167.504 66.1675 166.53 65.1191L163.599 67.8409ZM166.432 67.576H158.296V71.576H166.432V67.576ZM158.296 67.576C157.435 67.576 156.594 67.6634 155.846 67.9126C155.087 68.1655 154.297 68.6318 153.785 69.4638L157.192 71.5602C157.064 71.7682 156.934 71.7665 157.111 71.7074C157.299 71.6446 157.67 71.576 158.296 71.576V67.576ZM153.785 69.4638C153.092 70.5908 152.912 72.1325 152.912 73.68H156.912C156.912 72.2515 157.117 71.6812 157.192 71.5602L153.785 69.4638ZM152.912 73.68V79.296H156.912V73.68H152.912ZM152.912 79.296C152.912 80.1401 152.985 80.947 153.182 81.6623C153.376 82.3667 153.737 83.15 154.438 83.7239L156.971 80.6281C157.144 80.77 157.109 80.8573 157.039 80.6017C156.972 80.357 156.912 79.9399 156.912 79.296H152.912ZM154.504 83.776C155.641 84.6282 157.26 84.824 158.8 84.824V80.824C158.143 80.824 157.659 80.7753 157.32 80.7044C156.968 80.6308 156.876 80.5543 156.904 80.576L154.504 83.776ZM158.8 84.824H163.552V80.824H158.8V84.824ZM161.552 82.824V85.056H165.552V82.824H161.552ZM161.552 85.056C161.552 85.3474 161.529 85.5126 161.512 85.5848C161.505 85.6173 161.504 85.6087 161.52 85.5717C161.537 85.5344 161.577 85.455 161.656 85.3596L164.729 87.9204C165.454 87.0498 165.552 85.8814 165.552 85.056H161.552ZM161.631 85.3906C161.787 85.1953 161.951 85.0875 162.05 85.0345C162.1 85.0075 162.14 84.9912 162.165 84.9822C162.189 84.9732 162.203 84.9698 162.203 84.9697C162.204 84.9696 162.194 84.972 162.173 84.9754C162.152 84.9789 162.123 84.9829 162.083 84.9867C162.003 84.9944 161.894 85 161.752 85V89C162.221 89 162.713 88.9654 163.174 88.8503C163.599 88.744 164.263 88.504 164.754 87.8894L161.631 85.3906ZM161.752 85H155.992V89H161.752V85ZM217.83 52.008L216.384 53.3889L216.416 53.4226L216.449 53.4547L217.83 52.008ZM217.83 85.488L216.416 84.0738L216.416 84.0738L217.83 85.488ZM202.71 85.992L201.149 87.2414L201.195 87.2989L201.245 87.3529L202.71 85.992ZM201.414 82.824L203.373 82.4188L199.414 82.824H201.414ZM200.982 86.64L199.568 85.2258L199.568 85.2258L200.982 86.64ZM195.654 87H193.654V89H195.654V87ZM196.014 37.032L197.429 38.4462L197.429 38.4462L196.014 37.032ZM201.414 36.6H203.414V34.6H201.414V36.6ZM201.414 82.824H199.414V84.824H201.414V82.824ZM213.078 81.888L214.782 82.9362L214.782 82.9362L213.078 81.888ZM213.078 55.536L214.782 54.4878L214.782 54.4878L213.078 55.536ZM204.294 54.6H202.294V56.6H204.294V54.6ZM204.582 50.856L203.046 49.5756L203.033 49.591L203.021 49.6066L204.582 50.856ZM212.574 52.424C214.889 52.424 215.947 52.9315 216.384 53.3889L219.277 50.627C217.698 48.9725 215.252 48.424 212.574 48.424V52.424ZM216.449 53.4547C216.907 53.8914 217.414 54.9493 217.414 57.264H221.414C221.414 54.5867 220.866 52.1406 219.211 50.5613L216.449 53.4547ZM217.414 57.264V80.16H221.414V57.264H217.414ZM217.414 80.16C217.414 82.4619 216.912 83.5777 216.416 84.0738L219.245 86.9022C220.86 85.2863 221.414 82.8501 221.414 80.16H217.414ZM216.416 84.0738C215.981 84.5086 214.908 85 212.574 85V89C215.232 89 217.663 88.4834 219.245 86.9022L216.416 84.0738ZM212.574 85H205.734V89H212.574V85ZM205.734 85C204.612 85 204.263 84.7247 204.176 84.6311L201.245 87.3529C202.406 88.6033 204.073 89 205.734 89V85ZM204.272 84.7426C203.971 84.3664 203.628 83.6537 203.373 82.4188L199.456 83.2292C199.776 84.7783 200.298 86.1775 201.149 87.2414L204.272 84.7426ZM199.414 82.824V85.056H203.414V82.824H199.414ZM199.414 85.056C199.414 85.1868 199.408 85.289 199.4 85.3661C199.391 85.4439 199.381 85.4867 199.377 85.5018C199.366 85.5412 199.396 85.3983 199.568 85.2258L202.397 88.0542C203.278 87.1731 203.414 85.9348 203.414 85.056H199.414ZM199.568 85.2258C199.696 85.0975 199.816 85.0291 199.882 84.9972C199.947 84.9656 199.98 84.9599 199.961 84.9644C199.944 84.9685 199.896 84.9782 199.809 84.9863C199.723 84.9944 199.612 85 199.47 85V89C199.943 89 200.43 88.9646 200.888 88.8556C201.324 88.7516 201.911 88.5393 202.397 88.0542L199.568 85.2258ZM199.47 85H195.654V89H199.47V85ZM197.654 87V38.544H193.654V87H197.654ZM197.654 38.544C197.654 38.4027 197.66 38.2909 197.668 38.2053C197.676 38.1186 197.686 38.0706 197.69 38.0532C197.694 38.0343 197.689 38.0674 197.657 38.1326C197.625 38.1986 197.557 38.3179 197.429 38.4462L194.6 35.6178C194.115 36.1029 193.903 36.69 193.799 37.1268C193.69 37.5843 193.654 38.0712 193.654 38.544H197.654ZM197.429 38.4462C197.256 38.6187 197.113 38.6483 197.153 38.6375C197.168 38.6334 197.21 38.6234 197.288 38.6148C197.365 38.6062 197.468 38.6 197.598 38.6V34.6C196.72 34.6 195.481 34.7367 194.6 35.6178L197.429 38.4462ZM197.598 38.6H201.414V34.6H197.598V38.6ZM199.414 36.6V82.824H203.414V36.6H199.414ZM201.414 84.824H210.27V80.824H201.414V84.824ZM210.27 84.824C211.132 84.824 211.973 84.7366 212.721 84.4874C213.479 84.2345 214.27 83.7682 214.782 82.9362L211.375 80.8398C211.503 80.6318 211.633 80.6335 211.456 80.6926C211.268 80.7554 210.897 80.824 210.27 80.824V84.824ZM214.782 82.9362C215.475 81.8092 215.654 80.2675 215.654 78.72H211.654C211.654 80.1485 211.449 80.7188 211.375 80.8398L214.782 82.9362ZM215.654 78.72V58.704H211.654V78.72H215.654ZM215.654 58.704C215.654 57.1565 215.475 55.6148 214.782 54.4878L211.375 56.5842C211.449 56.7052 211.654 57.2755 211.654 58.704H215.654ZM214.782 54.4878C214.27 53.6558 213.479 53.1895 212.721 52.9366C211.973 52.6874 211.132 52.6 210.27 52.6V56.6C210.897 56.6 211.268 56.6686 211.456 56.7314C211.633 56.7905 211.503 56.7922 211.375 56.5842L214.782 54.4878ZM210.27 52.6H204.294V56.6H210.27V52.6ZM206.294 54.6V52.368H202.294V54.6H206.294ZM206.294 52.368C206.294 52.2165 206.299 52.0921 206.307 51.992C206.314 51.8909 206.324 51.8251 206.331 51.7882C206.338 51.7491 206.339 51.7612 206.321 51.8075C206.305 51.8513 206.255 51.9668 206.144 52.1054L203.021 49.6066C202.628 50.0977 202.475 50.6562 202.402 51.0398C202.322 51.4596 202.294 51.9137 202.294 52.368H206.294ZM206.119 52.1364C206.009 52.2685 205.896 52.3502 205.816 52.3966C205.777 52.4195 205.745 52.434 205.724 52.4426C205.703 52.4512 205.691 52.4547 205.69 52.455C205.689 52.4552 205.721 52.4465 205.793 52.4383C205.864 52.4302 205.963 52.424 206.094 52.424V48.424C205.602 48.424 205.084 48.4682 204.591 48.609C204.101 48.7488 203.507 49.0228 203.046 49.5756L206.119 52.1364ZM206.094 52.424H212.574V48.424H206.094V52.424ZM247.997 82.824H249.997V80.824H247.997V82.824ZM247.637 86.64L246.101 85.3596L246.088 85.375L246.075 85.3906L247.637 86.64ZM229.997 85.488L228.551 86.869L228.583 86.9026L228.616 86.9347L229.997 85.488ZM229.997 52.008L228.583 50.5938L228.583 50.5938L229.997 52.008ZM248.501 52.008L247.055 53.3889L247.087 53.4226L247.12 53.4547L248.501 52.008ZM248.501 70.656L249.915 72.0702L249.915 72.0702L248.501 70.656ZM237.413 71.808L235.749 72.9174L235.859 73.0822L235.999 73.2222L237.413 71.808ZM237.125 67.992V65.992H235.125V67.992H237.125ZM244.109 67.056L242.406 66.0078L242.406 66.0078L244.109 67.056ZM243.965 55.392L242.485 56.7373L242.517 56.7726L242.551 56.8062L243.965 55.392ZM234.893 55.464L236.441 56.7305L236.468 56.6978L236.493 56.664L234.893 55.464ZM234.821 81.888L233.118 82.9362L233.118 82.9362L234.821 81.888ZM245.997 82.824V85.056H249.997V82.824H245.997ZM245.997 85.056C245.997 85.3474 245.973 85.5126 245.957 85.5848C245.95 85.6173 245.949 85.6087 245.965 85.5717C245.981 85.5344 246.021 85.455 246.101 85.3596L249.174 87.9204C249.899 87.0498 249.997 85.8814 249.997 85.056H245.997ZM246.075 85.3906C246.232 85.1953 246.396 85.0875 246.495 85.0345C246.545 85.0075 246.585 84.9912 246.61 84.9822C246.634 84.9732 246.648 84.9698 246.648 84.9697C246.648 84.9696 246.639 84.972 246.618 84.9754C246.597 84.9789 246.567 84.9829 246.528 84.9867C246.448 84.9944 246.339 85 246.197 85V89C246.665 89 247.158 88.9654 247.618 88.8503C248.043 88.744 248.707 88.504 249.199 87.8894L246.075 85.3906ZM246.197 85H235.325V89H246.197V85ZM235.325 85C233.005 85 231.874 84.5142 231.378 84.0413L228.616 86.9347C230.233 88.4778 232.654 89 235.325 89V85ZM231.444 84.107C230.971 83.6117 230.485 82.4806 230.485 80.16H226.485C226.485 82.8314 227.007 85.2523 228.551 86.869L231.444 84.107ZM230.485 80.16V57.264H226.485V80.16H230.485ZM230.485 57.264C230.485 54.93 230.977 53.857 231.411 53.4222L228.583 50.5938C227.002 52.175 226.485 54.606 226.485 57.264H230.485ZM231.411 53.4222C231.908 52.9261 233.023 52.424 235.325 52.424V48.424C232.635 48.424 230.199 48.9779 228.583 50.5938L231.411 53.4222ZM235.325 52.424H243.245V48.424H235.325V52.424ZM243.245 52.424C245.56 52.424 246.618 52.9315 247.055 53.3889L249.948 50.627C248.369 48.9725 245.923 48.424 243.245 48.424V52.424ZM247.12 53.4547C247.578 53.8914 248.085 54.9493 248.085 57.264H252.085C252.085 54.5867 251.537 52.1406 249.882 50.5613L247.12 53.4547ZM248.085 57.264V65.328H252.085V57.264H248.085ZM248.085 65.328C248.085 67.6299 247.583 68.7457 247.087 69.2418L249.915 72.0702C251.531 70.4543 252.085 68.0181 252.085 65.328H248.085ZM247.087 69.2418C246.652 69.6766 245.579 70.168 243.245 70.168V74.168C245.903 74.168 248.334 73.6514 249.915 72.0702L247.087 69.2418ZM243.245 70.168H238.925V74.168H243.245V70.168ZM238.925 70.168C238.784 70.168 238.672 70.1624 238.587 70.1543C238.5 70.1462 238.452 70.1365 238.434 70.1324C238.415 70.1279 238.449 70.1336 238.514 70.1652C238.58 70.1971 238.699 70.2655 238.827 70.3938L235.999 73.2222C236.484 73.7073 237.071 73.9196 237.508 74.0236C237.966 74.1326 238.452 74.168 238.925 74.168V70.168ZM239.077 70.6986C239.141 70.7941 239.167 70.864 239.173 70.8814C239.18 70.9001 239.174 70.8894 239.165 70.8382C239.145 70.7307 239.125 70.5346 239.125 70.224H235.125C235.125 70.6814 235.153 71.1333 235.229 71.5538C235.302 71.954 235.442 72.456 235.749 72.9174L239.077 70.6986ZM239.125 70.224V67.992H235.125V70.224H239.125ZM237.125 69.992H241.301V65.992H237.125V69.992ZM241.301 69.992C242.162 69.992 243.004 69.9046 243.752 69.6554C244.51 69.4025 245.301 68.9362 245.813 68.1042L242.406 66.0078C242.534 65.7998 242.664 65.8015 242.487 65.8606C242.298 65.9234 241.928 65.992 241.301 65.992V69.992ZM245.813 68.1042C246.506 66.9772 246.685 65.4355 246.685 63.888H242.685C242.685 65.3165 242.48 65.8868 242.406 66.0078L245.813 68.1042ZM246.685 63.888V58.344H242.685V63.888H246.685ZM246.685 58.344C246.685 57.5075 246.619 56.7171 246.448 56.0161C246.281 55.3313 245.976 54.5743 245.379 53.9778L242.551 56.8062C242.434 56.6897 242.489 56.6647 242.562 56.9639C242.631 57.2469 242.685 57.6925 242.685 58.344H246.685ZM245.445 54.0467C244.859 53.4023 244.097 53.0571 243.385 52.8663C242.666 52.6734 241.86 52.6 241.013 52.6V56.6C241.655 56.6 242.084 56.6586 242.349 56.7297C242.622 56.8028 242.591 56.8537 242.485 56.7373L245.445 54.0467ZM241.013 52.6H237.917V56.6H241.013V52.6ZM237.917 52.6C237.024 52.6 236.173 52.679 235.424 52.893C234.684 53.1042 233.867 53.4995 233.293 54.264L236.493 56.664C236.352 56.8525 236.254 56.8158 236.523 56.739C236.782 56.665 237.227 56.6 237.917 56.6V52.6ZM233.345 54.1975C232.832 54.8245 232.583 55.5929 232.446 56.2778C232.303 56.9925 232.245 57.8128 232.245 58.704H236.245C236.245 57.9632 236.295 57.4275 236.368 57.0622C236.447 56.667 236.522 56.6315 236.441 56.7305L233.345 54.1975ZM232.245 58.704V78.72H236.245V58.704H232.245ZM232.245 78.72C232.245 80.2675 232.424 81.8092 233.118 82.9362L236.525 80.8398C236.45 80.7188 236.245 80.1485 236.245 78.72H232.245ZM233.118 82.9362C233.63 83.7682 234.42 84.2345 235.179 84.4874C235.926 84.7366 236.768 84.824 237.629 84.824V80.824C237.002 80.824 236.632 80.7554 236.444 80.6926C236.266 80.6335 236.397 80.6318 236.525 80.8398L233.118 82.9362ZM237.629 84.824H247.997V80.824H237.629V84.824ZM281.267 86.64L279.853 85.2258L279.853 85.2258L281.267 86.64ZM275.939 87H273.939V89H275.939V87ZM275.363 55.536L277.067 54.4878L277.067 54.4878L275.363 55.536ZM264.131 54.6V52.6H262.131V54.6H264.131ZM263.699 86.64L265.114 88.0542L265.114 88.0542L263.699 86.64ZM258.371 87H256.371V89H258.371V87ZM258.731 50.856L257.317 49.4418L257.317 49.4418L258.731 50.856ZM264.131 50.424H266.131V48.424H264.131V50.424ZM264.131 54.6H262.131L266.09 55.0052L264.131 54.6ZM265.427 51.504L263.916 50.1941L263.909 50.2024L265.427 51.504ZM280.115 52.008L278.669 53.3889L278.701 53.4226L278.734 53.4547L280.115 52.008ZM298.835 86.64L300.25 88.0542L300.25 88.0542L298.835 86.64ZM293.507 87H291.507V89H293.507V87ZM292.931 55.536L291.228 56.5842L291.228 56.5842L292.931 55.536ZM281.483 54.6L279.525 54.1948L279.027 56.6H281.483V54.6ZM282.779 51.504L281.268 50.1941L281.261 50.2024L282.779 51.504ZM297.683 52.008L296.237 53.3889L296.269 53.4226L296.302 53.4547L297.683 52.008ZM279.699 85.056C279.699 85.1868 279.693 85.289 279.685 85.3661C279.676 85.4439 279.666 85.4867 279.662 85.5018C279.651 85.5412 279.681 85.3983 279.853 85.2258L282.682 88.0542C283.563 87.1731 283.699 85.9348 283.699 85.056H279.699ZM279.853 85.2258C279.981 85.0975 280.101 85.0291 280.167 84.9972C280.232 84.9656 280.265 84.9599 280.246 84.9644C280.229 84.9685 280.181 84.9782 280.094 84.9863C280.008 84.9944 279.897 85 279.755 85V89C280.228 89 280.715 88.9646 281.173 88.8556C281.609 88.7516 282.197 88.5393 282.682 88.0542L279.853 85.2258ZM279.755 85H275.939V89H279.755V85ZM277.939 87V58.704H273.939V87H277.939ZM277.939 58.704C277.939 57.1565 277.76 55.6148 277.067 54.4878L273.66 56.5842C273.735 56.7052 273.939 57.2755 273.939 58.704H277.939ZM277.067 54.4878C276.555 53.6558 275.764 53.1895 275.006 52.9366C274.258 52.6874 273.417 52.6 272.555 52.6V56.6C273.182 56.6 273.553 56.6686 273.741 56.7314C273.918 56.7905 273.788 56.7922 273.66 56.5842L277.067 54.4878ZM272.555 52.6H264.131V56.6H272.555V52.6ZM262.131 54.6V85.056H266.131V54.6H262.131ZM262.131 85.056C262.131 85.1868 262.125 85.289 262.117 85.3661C262.108 85.4439 262.098 85.4867 262.094 85.5018C262.083 85.5412 262.113 85.3983 262.285 85.2258L265.114 88.0542C265.995 87.1731 266.131 85.9348 266.131 85.056H262.131ZM262.285 85.2258C262.414 85.0975 262.533 85.0291 262.599 84.9972C262.664 84.9656 262.697 84.9599 262.678 84.9644C262.661 84.9685 262.613 84.9782 262.526 84.9863C262.44 84.9944 262.329 85 262.187 85V89C262.66 89 263.147 88.9646 263.605 88.8556C264.041 88.7516 264.629 88.5393 265.114 88.0542L262.285 85.2258ZM262.187 85H258.371V89H262.187V85ZM260.371 87V52.368H256.371V87H260.371ZM260.371 52.368C260.371 52.2267 260.377 52.1149 260.385 52.0293C260.393 51.9426 260.403 51.8946 260.407 51.8772C260.412 51.8583 260.406 51.8914 260.374 51.9566C260.342 52.0226 260.274 52.1419 260.146 52.2702L257.317 49.4418C256.832 49.9269 256.62 50.514 256.516 50.9508C256.407 51.4083 256.371 51.8952 256.371 52.368H260.371ZM260.146 52.2702C259.973 52.4427 259.83 52.4723 259.87 52.4615C259.885 52.4574 259.928 52.4474 260.005 52.4388C260.082 52.4302 260.185 52.424 260.315 52.424V48.424C259.437 48.424 258.198 48.5607 257.317 49.4418L260.146 52.2702ZM260.315 52.424H264.131V48.424H260.315V52.424ZM262.131 50.424V54.6H266.131V50.424H262.131ZM266.09 55.0052C266.347 53.7643 266.685 53.1102 266.946 52.8056L263.909 50.2024C263.018 51.2418 262.492 52.6517 262.173 54.1948L266.09 55.0052ZM266.939 52.8139C267.035 52.7033 267.366 52.424 268.451 52.424V48.424C266.753 48.424 265.068 48.8647 263.916 50.1941L266.939 52.8139ZM268.451 52.424H274.859V48.424H268.451V52.424ZM274.859 52.424C277.174 52.424 278.232 52.9315 278.669 53.3889L281.562 50.627C279.983 48.9725 277.537 48.424 274.859 48.424V52.424ZM278.734 53.4547C279.192 53.8914 279.699 54.9493 279.699 57.264H283.699C283.699 54.5867 283.151 52.1406 281.496 50.5613L278.734 53.4547ZM279.699 57.264V85.056H283.699V57.264H279.699ZM297.267 85.056C297.267 85.1868 297.261 85.289 297.253 85.3661C297.244 85.4439 297.234 85.4867 297.23 85.5018C297.219 85.5412 297.249 85.3983 297.421 85.2258L300.25 88.0542C301.131 87.1731 301.267 85.9348 301.267 85.056H297.267ZM297.421 85.2258C297.55 85.0975 297.669 85.0291 297.735 84.9972C297.8 84.9656 297.833 84.9599 297.814 84.9644C297.797 84.9685 297.749 84.9782 297.662 84.9863C297.576 84.9944 297.465 85 297.323 85V89C297.796 89 298.283 88.9646 298.741 88.8556C299.177 88.7516 299.765 88.5393 300.25 88.0542L297.421 85.2258ZM297.323 85H293.507V89H297.323V85ZM295.507 87V58.704H291.507V87H295.507ZM295.507 58.704C295.507 57.1565 295.328 55.6148 294.635 54.4878L291.228 56.5842C291.303 56.7052 291.507 57.2755 291.507 58.704H295.507ZM294.635 54.4878C294.123 53.6558 293.332 53.1895 292.574 52.9366C291.826 52.6874 290.985 52.6 290.123 52.6V56.6C290.75 56.6 291.121 56.6686 291.309 56.7314C291.486 56.7905 291.356 56.7922 291.228 56.5842L294.635 54.4878ZM290.123 52.6H281.483V56.6H290.123V52.6ZM283.442 55.0052C283.699 53.7643 284.037 53.1102 284.298 52.8056L281.261 50.2024C280.37 51.2418 279.844 52.6517 279.525 54.1948L283.442 55.0052ZM284.291 52.8139C284.387 52.7033 284.718 52.424 285.803 52.424V48.424C284.105 48.424 282.42 48.8647 281.268 50.1941L284.291 52.8139ZM285.803 52.424H292.427V48.424H285.803V52.424ZM292.427 52.424C294.742 52.424 295.8 52.9315 296.237 53.3889L299.13 50.627C297.551 48.9725 295.105 48.424 292.427 48.424V52.424ZM296.302 53.4547C296.76 53.8914 297.267 54.9493 297.267 57.264H301.267C301.267 54.5867 300.719 52.1406 299.064 50.5613L296.302 53.4547ZM297.267 57.264V85.056H301.267V57.264H297.267ZM336.749 85.056L334.822 84.5193L334.815 84.545L334.809 84.5709L336.749 85.056ZM335.957 86.64L337.237 88.1764L337.248 88.1676L337.259 88.1585L335.957 86.64ZM330.053 87L328.124 87.5293L328.528 89H330.053V87ZM320.549 52.368L318.597 52.8019L318.607 52.8499L318.62 52.8973L320.549 52.368ZM325.229 50.424L327.155 49.8859L326.747 48.424H325.229V50.424ZM331.565 73.104L333.532 72.7404L333.515 72.6522L333.491 72.5659L331.565 73.104ZM333.149 81.672L331.182 82.0356L331.485 83.672H333.149V81.672ZM333.581 81.672V83.672H335.259L335.551 82.0196L333.581 81.672ZM335.093 73.104L333.169 72.5563L333.141 72.6552L333.123 72.7564L335.093 73.104ZM340.997 52.368L342.921 52.9157L342.929 52.8845L342.937 52.8531L340.997 52.368ZM341.789 50.856L342.952 52.4835L343.023 52.4321L343.091 52.3745L341.789 50.856ZM346.397 50.424L348.324 50.9607L349.03 48.424H346.397V50.424ZM334.809 84.5709C334.737 84.858 334.667 85.0357 334.618 85.1336C334.568 85.2345 334.566 85.1984 334.655 85.1215L337.259 88.1585C338.073 87.4601 338.466 86.4332 338.689 85.5411L334.809 84.5709ZM334.677 85.1036C334.772 85.0241 334.851 84.9841 334.889 84.9677C334.926 84.9514 334.934 84.9523 334.902 84.9597C334.83 84.9761 334.664 85 334.373 85V89C335.198 89 336.367 88.9019 337.237 88.1764L334.677 85.1036ZM334.373 85H330.053V89H334.373V85ZM331.982 86.4707L322.478 51.8387L318.62 52.8973L328.124 87.5293L331.982 86.4707ZM322.501 51.9341C322.46 51.7479 322.47 51.6858 322.467 51.7141C322.463 51.7548 322.437 51.916 322.3 52.1005C322.159 52.2912 321.991 52.3838 321.899 52.4182C321.827 52.4453 321.838 52.424 321.989 52.424V48.424C321.087 48.424 319.874 48.6557 319.086 49.7195C318.331 50.7385 318.406 51.9435 318.597 52.8019L322.501 51.9341ZM321.989 52.424H325.229V48.424H321.989V52.424ZM323.303 50.9621L329.639 73.6421L333.491 72.5659L327.155 49.8859L323.303 50.9621ZM329.598 73.4676L331.182 82.0356L335.116 81.3084L333.532 72.7404L329.598 73.4676ZM333.149 83.672H333.581V79.672H333.149V83.672ZM335.551 82.0196L337.063 73.4516L333.123 72.7564L331.611 81.3244L335.551 82.0196ZM337.017 73.6517L342.921 52.9157L339.073 51.8203L333.169 72.5563L337.017 73.6517ZM342.937 52.8531C343.009 52.5678 343.075 52.4109 343.111 52.342C343.149 52.2684 343.116 52.3657 342.952 52.4835L340.627 49.2285C339.68 49.905 339.272 51.0205 339.057 51.8829L342.937 52.8531ZM343.091 52.3745C342.971 52.4767 342.896 52.484 342.96 52.4672C343.025 52.4501 343.177 52.424 343.445 52.424V48.424C342.519 48.424 341.371 48.5802 340.487 49.3375L343.091 52.3745ZM343.445 52.424H346.397V48.424H343.445V52.424ZM344.47 49.8873L334.822 84.5193L338.676 85.5927L348.324 50.9607L344.47 49.8873ZM353.225 41.208L351.81 39.7938L351.81 39.7938L353.225 41.208ZM359.201 40.776H361.201V38.776H359.201V40.776ZM358.769 46.176L357.354 44.7618L357.354 44.7618L358.769 46.176ZM352.865 46.536H350.865V48.536H352.865V46.536ZM358.913 50.424H360.913V48.424H358.913V50.424ZM358.481 86.64L359.895 88.0542L359.895 88.0542L358.481 86.64ZM353.153 87H351.153V89H353.153V87ZM353.513 50.856L352.098 49.4418L352.098 49.4418L353.513 50.856ZM354.865 42.72C354.865 42.5787 354.87 42.4669 354.878 42.3813C354.886 42.2946 354.896 42.2466 354.9 42.2292C354.905 42.2103 354.899 42.2434 354.867 42.3086C354.836 42.3746 354.767 42.4939 354.639 42.6222L351.81 39.7938C351.325 40.2789 351.113 40.866 351.009 41.3028C350.9 41.7603 350.865 42.2472 350.865 42.72H354.865ZM354.639 42.6222C354.466 42.7947 354.323 42.8243 354.363 42.8135C354.378 42.8094 354.421 42.7994 354.499 42.7908C354.576 42.7822 354.678 42.776 354.809 42.776V38.776C353.93 38.776 352.692 38.9127 351.81 39.7938L354.639 42.6222ZM354.809 42.776H359.201V38.776H354.809V42.776ZM357.201 40.776V44.592H361.201V40.776H357.201ZM357.201 44.592C357.201 44.7228 357.194 44.825 357.186 44.9021C357.177 44.9799 357.167 45.0227 357.163 45.0378C357.152 45.0772 357.182 44.9343 357.354 44.7618L360.183 47.5902C361.064 46.7091 361.201 45.4708 361.201 44.592H357.201ZM357.354 44.7618C357.483 44.6335 357.602 44.5651 357.668 44.5332C357.733 44.5016 357.766 44.4959 357.747 44.5004C357.73 44.5045 357.682 44.5142 357.595 44.5223C357.51 44.5304 357.398 44.536 357.257 44.536V48.536C357.729 48.536 358.216 48.5006 358.674 48.3916C359.111 48.2876 359.698 48.0753 360.183 47.5902L357.354 44.7618ZM357.257 44.536H352.865V48.536H357.257V44.536ZM354.865 46.536V42.72H350.865V46.536H354.865ZM356.913 50.424V85.056H360.913V50.424H356.913ZM356.913 85.056C356.913 85.1868 356.906 85.289 356.898 85.3661C356.889 85.4439 356.879 85.4867 356.875 85.5018C356.864 85.5412 356.894 85.3983 357.066 85.2258L359.895 88.0542C360.776 87.1731 360.913 85.9348 360.913 85.056H356.913ZM357.066 85.2258C357.195 85.0975 357.314 85.0291 357.38 84.9972C357.445 84.9656 357.478 84.9599 357.459 84.9644C357.442 84.9685 357.394 84.9782 357.307 84.9863C357.222 84.9944 357.11 85 356.969 85V89C357.441 89 357.928 88.9646 358.386 88.8556C358.823 88.7516 359.41 88.5393 359.895 88.0542L357.066 85.2258ZM356.969 85H353.153V89H356.969V85ZM355.153 87V52.368H351.153V87H355.153ZM355.153 52.368C355.153 52.2267 355.158 52.1149 355.166 52.0293C355.174 51.9426 355.184 51.8946 355.188 51.8772C355.193 51.8583 355.187 51.8914 355.155 51.9566C355.124 52.0226 355.055 52.1419 354.927 52.2702L352.098 49.4418C351.613 49.9269 351.401 50.514 351.297 50.9508C351.188 51.4083 351.153 51.8952 351.153 52.368H355.153ZM354.927 52.2702C354.754 52.4427 354.611 52.4723 354.651 52.4615C354.666 52.4574 354.709 52.4474 354.787 52.4388C354.864 52.4302 354.966 52.424 355.097 52.424V48.424C354.218 48.424 352.98 48.5607 352.098 49.4418L354.927 52.2702ZM355.097 52.424H358.913V48.424H355.097V52.424ZM390.446 52.008L388.999 53.3889L389.031 53.4226L389.065 53.4547L390.446 52.008ZM391.598 86.64L393.012 88.0542L393.012 88.0542L391.598 86.64ZM386.27 87H384.27V89H386.27V87ZM385.694 55.536L383.991 56.5842L383.991 56.5842L385.694 55.536ZM374.03 54.6V52.6H372.03V54.6H374.03ZM373.598 86.64L375.012 88.0542L375.012 88.0542L373.598 86.64ZM368.27 87H366.27V89H368.27V87ZM368.63 50.856L367.216 49.4418L367.216 49.4418L368.63 50.856ZM374.03 50.424H376.03V48.424H374.03V50.424ZM374.03 54.6H372.03L375.988 55.0052L374.03 54.6ZM375.326 51.504L373.814 50.1941L373.807 50.2024L375.326 51.504ZM385.19 52.424C387.505 52.424 388.562 52.9315 388.999 53.3889L391.893 50.627C390.313 48.9725 387.867 48.424 385.19 48.424V52.424ZM389.065 53.4547C389.522 53.8914 390.03 54.9493 390.03 57.264H394.03C394.03 54.5867 393.481 52.1406 391.827 50.5613L389.065 53.4547ZM390.03 57.264V85.056H394.03V57.264H390.03ZM390.03 85.056C390.03 85.1868 390.024 85.289 390.015 85.3661C390.006 85.4439 389.996 85.4867 389.992 85.5018C389.982 85.5412 390.011 85.3983 390.184 85.2258L393.012 88.0542C393.893 87.1731 394.03 85.9348 394.03 85.056H390.03ZM390.184 85.2258C390.312 85.0975 390.431 85.0291 390.497 84.9972C390.562 84.9656 390.596 84.9599 390.577 84.9644C390.559 84.9685 390.511 84.9782 390.424 84.9863C390.339 84.9944 390.227 85 390.086 85V89C390.559 89 391.046 88.9646 391.503 88.8556C391.94 88.7516 392.527 88.5393 393.012 88.0542L390.184 85.2258ZM390.086 85H386.27V89H390.086V85ZM388.27 87V58.704H384.27V87H388.27ZM388.27 58.704C388.27 57.1565 388.091 55.6148 387.397 54.4878L383.991 56.5842C384.065 56.7052 384.27 57.2755 384.27 58.704H388.27ZM387.397 54.4878C386.885 53.6558 386.095 53.1895 385.336 52.9366C384.589 52.6874 383.747 52.6 382.886 52.6V56.6C383.513 56.6 383.883 56.6686 384.071 56.7314C384.249 56.7905 384.119 56.7922 383.991 56.5842L387.397 54.4878ZM382.886 52.6H374.03V56.6H382.886V52.6ZM372.03 54.6V85.056H376.03V54.6H372.03ZM372.03 85.056C372.03 85.1868 372.024 85.289 372.015 85.3661C372.006 85.4439 371.996 85.4867 371.992 85.5018C371.982 85.5412 372.011 85.3983 372.184 85.2258L375.012 88.0542C375.893 87.1731 376.03 85.9348 376.03 85.056H372.03ZM372.184 85.2258C372.312 85.0975 372.431 85.0291 372.497 84.9972C372.562 84.9656 372.596 84.9599 372.577 84.9644C372.559 84.9685 372.511 84.9782 372.424 84.9863C372.339 84.9944 372.227 85 372.086 85V89C372.559 89 373.046 88.9646 373.503 88.8556C373.94 88.7516 374.527 88.5393 375.012 88.0542L372.184 85.2258ZM372.086 85H368.27V89H372.086V85ZM370.27 87V52.368H366.27V87H370.27ZM370.27 52.368C370.27 52.2267 370.275 52.1149 370.284 52.0293C370.292 51.9426 370.301 51.8946 370.305 51.8772C370.31 51.8583 370.304 51.8914 370.273 51.9566C370.241 52.0226 370.172 52.1419 370.044 52.2702L367.216 49.4418C366.731 49.9269 366.518 50.514 366.414 50.9508C366.305 51.4083 366.27 51.8952 366.27 52.368H370.27ZM370.044 52.2702C369.872 52.4427 369.729 52.4723 369.768 52.4615C369.783 52.4574 369.826 52.4474 369.904 52.4388C369.981 52.4302 370.083 52.424 370.214 52.424V48.424C369.335 48.424 368.097 48.5607 367.216 49.4418L370.044 52.2702ZM370.214 52.424H374.03V48.424H370.214V52.424ZM372.03 50.424V54.6H376.03V50.424H372.03ZM375.988 55.0052C376.245 53.7643 376.583 53.1102 376.844 52.8056L373.807 50.2024C372.916 51.2418 372.391 52.6517 372.071 54.1948L375.988 55.0052ZM376.837 52.8139C376.933 52.7033 377.265 52.424 378.35 52.424V48.424C376.651 48.424 374.967 48.8647 373.814 50.1941L376.837 52.8139ZM378.35 52.424H385.19V48.424H378.35V52.424ZM424.933 36.6H426.933V34.6H424.933V36.6ZM424.501 86.64L425.915 88.0542L425.915 88.0542L424.501 86.64ZM419.173 87H417.173V89H419.173V87ZM419.533 37.032L420.947 38.4462L420.947 38.4462L419.533 37.032ZM402.685 85.488L401.238 86.869L401.27 86.9026L401.304 86.9347L402.685 85.488ZM402.685 52.008L401.271 50.5938L401.271 50.5938L402.685 52.008ZM417.805 51.504L416.243 52.7534L416.289 52.8109L416.339 52.8649L417.805 51.504ZM419.173 54.6V56.6H421.629L421.131 54.1948L419.173 54.6ZM407.509 55.536L409.212 56.5842L409.212 56.5842L407.509 55.536ZM407.509 81.888L405.805 82.9362L405.805 82.9362L407.509 81.888ZM416.293 82.824H418.293V80.824H416.293V82.824ZM415.933 86.64L414.396 85.3596L414.383 85.375L414.371 85.3906L415.933 86.64ZM422.933 36.6V85.056H426.933V36.6H422.933ZM422.933 85.056C422.933 85.1868 422.927 85.289 422.918 85.3661C422.909 85.4439 422.899 85.4867 422.895 85.5018C422.884 85.5412 422.914 85.3983 423.087 85.2258L425.915 88.0542C426.796 87.1731 426.933 85.9348 426.933 85.056H422.933ZM423.087 85.2258C423.215 85.0975 423.334 85.0291 423.4 84.9972C423.465 84.9656 423.498 84.9599 423.479 84.9644C423.462 84.9685 423.414 84.9782 423.327 84.9863C423.242 84.9944 423.13 85 422.989 85V89C423.462 89 423.948 88.9646 424.406 88.8556C424.843 88.7516 425.43 88.5393 425.915 88.0542L423.087 85.2258ZM422.989 85H419.173V89H422.989V85ZM421.173 87V38.544H417.173V87H421.173ZM421.173 38.544C421.173 38.4027 421.178 38.2909 421.186 38.2053C421.195 38.1186 421.204 38.0706 421.208 38.0532C421.213 38.0343 421.207 38.0674 421.176 38.1326C421.144 38.1986 421.075 38.3179 420.947 38.4462L418.119 35.6178C417.633 36.1029 417.421 36.69 417.317 37.1268C417.208 37.5843 417.173 38.0712 417.173 38.544H421.173ZM420.947 38.4462C420.774 38.6187 420.632 38.6483 420.671 38.6375C420.686 38.6334 420.729 38.6234 420.807 38.6148C420.884 38.6062 420.986 38.6 421.117 38.6V34.6C420.238 34.6 419 34.7367 418.118 35.6178L420.947 38.4462ZM421.117 38.6H424.933V34.6H421.117V38.6ZM408.013 85C405.692 85 404.561 84.5142 404.066 84.0413L401.304 86.9347C402.92 88.4778 405.341 89 408.013 89V85ZM404.131 84.107C403.659 83.6117 403.173 82.4806 403.173 80.16H399.173C399.173 82.8314 399.695 85.2523 401.238 86.869L404.131 84.107ZM403.173 80.16V57.264H399.173V80.16H403.173ZM403.173 57.264C403.173 54.93 403.664 53.857 404.099 53.4222L401.271 50.5938C399.689 52.175 399.173 54.606 399.173 57.264H403.173ZM404.099 53.4222C404.595 52.9261 405.711 52.424 408.013 52.424V48.424C405.323 48.424 402.886 48.9779 401.271 50.5938L404.099 53.4222ZM408.013 52.424H414.853V48.424H408.013V52.424ZM414.853 52.424C415.954 52.424 416.208 52.7095 416.243 52.7534L419.366 50.2546C418.25 48.8585 416.536 48.424 414.853 48.424V52.424ZM416.339 52.8649C416.614 53.1605 416.963 53.7903 417.214 55.0052L421.131 54.1948C420.807 52.6257 420.244 51.1915 419.27 50.1431L416.339 52.8649ZM419.173 52.6H410.317V56.6H419.173V52.6ZM410.317 52.6C409.456 52.6 408.614 52.6874 407.866 52.9366C407.108 53.1895 406.317 53.6558 405.805 54.4878L409.212 56.5842C409.084 56.7922 408.954 56.7905 409.131 56.7314C409.32 56.6686 409.69 56.6 410.317 56.6V52.6ZM405.805 54.4878C405.112 55.6148 404.933 57.1565 404.933 58.704H408.933C408.933 57.2755 409.138 56.7052 409.212 56.5842L405.805 54.4878ZM404.933 58.704V78.72H408.933V58.704H404.933ZM404.933 78.72C404.933 80.2675 405.112 81.8092 405.805 82.9362L409.212 80.8398C409.138 80.7188 408.933 80.1485 408.933 78.72H404.933ZM405.805 82.9362C406.317 83.7682 407.108 84.2345 407.866 84.4874C408.614 84.7366 409.456 84.824 410.317 84.824V80.824C409.69 80.824 409.32 80.7554 409.131 80.6926C408.954 80.6335 409.084 80.6318 409.212 80.8398L405.805 82.9362ZM410.317 84.824H416.293V80.824H410.317V84.824ZM414.293 82.824V85.056H418.293V82.824H414.293ZM414.293 85.056C414.293 85.3474 414.269 85.5126 414.252 85.5848C414.245 85.6173 414.244 85.6087 414.26 85.5717C414.277 85.5344 414.317 85.455 414.396 85.3596L417.469 87.9204C418.195 87.0498 418.293 85.8814 418.293 85.056H414.293ZM414.371 85.3906C414.527 85.1953 414.691 85.0875 414.79 85.0345C414.841 85.0075 414.881 84.9912 414.905 84.9822C414.93 84.9732 414.943 84.9698 414.944 84.9697C414.944 84.9696 414.934 84.972 414.913 84.9754C414.892 84.9789 414.863 84.9829 414.823 84.9867C414.743 84.9944 414.634 85 414.493 85V89C414.961 89 415.453 88.9654 415.914 88.8503C416.339 88.744 417.003 88.504 417.494 87.8894L414.371 85.3906ZM414.493 85H408.013V89H414.493V85ZM435.661 52.008L434.247 50.5938L434.247 50.5938L435.661 52.008ZM456.325 52.008L454.879 53.3889L454.911 53.4226L454.944 53.4547L456.325 52.008ZM456.325 85.488L457.739 86.9022L457.739 86.9022L456.325 85.488ZM435.661 85.488L434.215 86.869L434.247 86.9026L434.28 86.9347L435.661 85.488ZM440.485 55.536L442.189 56.5842L442.189 56.5842L440.485 55.536ZM440.485 81.888L438.782 82.9362L438.782 82.9362L440.485 81.888ZM451.573 81.888L449.87 80.8398L449.87 80.8398L451.573 81.888ZM451.573 55.536L449.87 56.5842L449.87 56.5842L451.573 55.536ZM436.149 57.264C436.149 54.93 436.641 53.857 437.075 53.4222L434.247 50.5938C432.666 52.175 432.149 54.606 432.149 57.264H436.149ZM437.075 53.4222C437.572 52.9261 438.687 52.424 440.989 52.424V48.424C438.299 48.424 435.863 48.9779 434.247 50.5938L437.075 53.4222ZM440.989 52.424H451.069V48.424H440.989V52.424ZM451.069 52.424C453.384 52.424 454.442 52.9315 454.879 53.3889L457.772 50.627C456.193 48.9725 453.747 48.424 451.069 48.424V52.424ZM454.944 53.4547C455.402 53.8914 455.909 54.9493 455.909 57.264H459.909C459.909 54.5867 459.361 52.1406 457.706 50.5613L454.944 53.4547ZM455.909 57.264V80.16H459.909V57.264H455.909ZM455.909 80.16C455.909 82.4619 455.407 83.5777 454.911 84.0738L457.739 86.9022C459.355 85.2863 459.909 82.8501 459.909 80.16H455.909ZM454.911 84.0738C454.476 84.5086 453.403 85 451.069 85V89C453.727 89 456.158 88.4834 457.739 86.9022L454.911 84.0738ZM451.069 85H440.989V89H451.069V85ZM440.989 85C438.669 85 437.538 84.5142 437.042 84.0413L434.28 86.9347C435.897 88.4778 438.318 89 440.989 89V85ZM437.108 84.107C436.635 83.6117 436.149 82.4806 436.149 80.16H432.149C432.149 82.8314 432.671 85.2523 434.215 86.869L437.108 84.107ZM436.149 80.16V57.264H432.149V80.16H436.149ZM443.293 52.6C442.432 52.6 441.59 52.6874 440.843 52.9366C440.084 53.1895 439.294 53.6558 438.782 54.4878L442.189 56.5842C442.061 56.7922 441.93 56.7905 442.108 56.7314C442.296 56.6686 442.666 56.6 443.293 56.6V52.6ZM438.782 54.4878C438.088 55.6148 437.909 57.1565 437.909 58.704H441.909C441.909 57.2755 442.114 56.7052 442.189 56.5842L438.782 54.4878ZM437.909 58.704V78.72H441.909V58.704H437.909ZM437.909 78.72C437.909 80.2675 438.088 81.8092 438.782 82.9362L442.189 80.8398C442.114 80.7188 441.909 80.1485 441.909 78.72H437.909ZM438.782 82.9362C439.294 83.7682 440.084 84.2345 440.843 84.4874C441.59 84.7366 442.432 84.824 443.293 84.824V80.824C442.666 80.824 442.296 80.7554 442.108 80.6926C441.93 80.6335 442.061 80.6318 442.189 80.8398L438.782 82.9362ZM443.293 84.824H448.765V80.824H443.293V84.824ZM448.765 84.824C449.626 84.824 450.468 84.7366 451.216 84.4874C451.974 84.2345 452.765 83.7682 453.277 82.9362L449.87 80.8398C449.998 80.6318 450.128 80.6335 449.951 80.6926C449.762 80.7554 449.392 80.824 448.765 80.824V84.824ZM453.277 82.9362C453.97 81.8092 454.149 80.2675 454.149 78.72H450.149C450.149 80.1485 449.944 80.7188 449.87 80.8398L453.277 82.9362ZM454.149 78.72V58.704H450.149V78.72H454.149ZM454.149 58.704C454.149 57.1565 453.97 55.6148 453.277 54.4878L449.87 56.5842C449.944 56.7052 450.149 57.2755 450.149 58.704H454.149ZM453.277 54.4878C452.765 53.6558 451.974 53.1895 451.216 52.9366C450.468 52.6874 449.626 52.6 448.765 52.6V56.6C449.392 56.6 449.762 56.6686 449.951 56.7314C450.128 56.7905 449.998 56.7922 449.87 56.5842L453.277 54.4878ZM448.765 52.6H443.293V56.6H448.765V52.6Z" fill="#E1E0E0"/>
</svg>
