<svg width="326" height="64" viewBox="0 0 326 64" fill="none" xmlns="http://www.w3.org/2000/svg">
<path d="M26.5875 44.196L24.7322 40.4796H23.9918C19.2902 47.5149 17.2068 53.7751 18.4553 57.9304L23.4826 53.752C22.9561 51.6645 23.9409 48.5407 26.1602 44.8048L26.5875 44.196Z" fill="#FFE02F"/>
<path d="M20.501 56.2302L23.4827 53.752C22.9562 51.6645 23.941 48.5407 26.1602 44.8048L26.5875 44.196L24.7323 40.4796H23.9919C22.6291 42.5189 21.4877 44.4925 20.5823 46.3692C19.0168 50.4913 18.9019 53.9397 20.501 56.2302Z" fill="#FBC700"/>
<path d="M65.0508 5.90357V6.49114L69.3334 8.03262L70.187 7.7294C74.9913 5.70559 78.9431 4.90091 81.4026 5.61147L86.4581 1.40962C81.5417 0.028496 73.8011 1.75671 65.0508 5.90357Z" fill="#FFE02F"/>
<path d="M70.187 7.7295C74.9913 5.70569 78.9431 4.90101 81.4026 5.61157L84.2494 3.24554C81.5362 1.6117 77.2169 1.63607 71.988 3.05169C69.7763 3.81111 67.452 4.76565 65.0508 5.90354V6.49111L69.3334 8.03259L70.187 7.7295Z" fill="#FBC700"/>
<path d="M82.3282 17.7151L67.1071 8.40769L66.4977 6.33151C66.0186 6.1794 65.5365 6.03604 65.051 5.90355C65.0522 5.90305 65.0534 5.90243 65.0544 5.90193C63.5627 5.49484 62.076 5.183 60.6001 4.95889V4.96102L55.061 6.33164L25.0352 24.7188L22.4433 29.9059L22.4414 29.9069C22.241 32.1666 22.3805 34.4954 22.8987 36.8564L22.9008 36.8556L24.5095 37.3217L35.4929 51.5288L34.9891 53.6654C35.4369 53.9592 35.8914 54.244 36.3545 54.5164L40.8361 54.7191L51.0456 48.4923L66.7924 36.6055L82.5927 18.3234L82.3282 17.7151Z" fill="#FF9838"/>
<path d="M22.9008 36.8555L24.5095 37.3216L35.4929 51.5287L34.9891 53.6653C35.4369 53.9591 35.8914 54.2439 36.3545 54.5163L40.8361 54.719L48.0253 50.3343C38.796 44.9434 32.7509 35.9587 32.7509 25.7837C32.7509 23.6324 33.0234 21.535 33.5368 19.5127L25.0352 24.7188L22.4433 29.9059L22.4414 29.9069C22.241 32.1666 22.3805 34.4954 22.8987 36.8564L22.9008 36.8555Z" fill="#FF8706"/>
<path d="M75.4414 47.8005L85.8581 38.2591L87.2509 36.1218H87.251C87.9762 32.1107 87.6365 27.8375 85.9743 23.5186L84.2872 23.7291L69.9272 39.4354L56.3032 49.5117L75.4414 47.8005Z" fill="#FF9838"/>
<path d="M56.4616 10.8124C58.4086 9.17276 59.8281 7.15657 60.6002 4.9609C41.2666 2.02468 23.8256 14.3253 22.4434 29.9059L27.1966 25.9032C30.0015 23.5412 33.7179 22.1119 37.6367 21.8881C41.5556 21.6642 45.2719 20.235 48.077 17.8729L56.4616 10.8124Z" fill="#FFAA5B"/>
<path d="M32.9302 22.768C33.6069 17.0866 36.1761 11.876 40.097 7.58679C30.3024 11.8836 23.2986 20.2661 22.4434 29.9059L27.1966 25.9032C28.8416 24.518 30.8014 23.4566 32.9302 22.768Z" fill="#FF9838"/>
<path d="M81.7193 16.3142C81.0675 15.5284 80.3609 14.7693 79.6079 14.0383L78.3129 13.7613L72.9945 9.6158L72.7456 8.99448C71.9215 8.54215 71.069 8.11919 70.1899 7.72823C70.1888 7.7286 70.1879 7.72898 70.1869 7.72948C68.9859 7.1954 67.7532 6.73019 66.4974 6.33148L66.3525 7.06366C65.7447 10.1346 64.0126 12.9689 61.3984 15.1703L52.1873 22.9271C49.1059 25.5219 44.9978 27.0709 40.6469 27.2783C36.296 27.4856 32.1879 29.0346 29.1065 31.6295L22.9006 36.8555C23.1647 38.0579 23.5224 39.2683 23.9898 40.4825C23.9904 40.4815 23.991 40.4805 23.9917 40.4795C24.2955 41.269 24.6442 42.0488 25.035 42.8169H25.7152L30.2236 48.6331L30.2421 49.8512C31.682 51.2636 33.276 52.5419 34.989 53.6654L46.4181 44.041C48.0562 42.6615 49.2332 40.9424 49.8302 39.0574L50.7627 36.1124C51.3597 34.2274 52.5365 32.5083 54.1748 31.1288L60.8717 25.4893C62.4741 24.1399 64.4629 23.1617 66.6457 22.6491L79.664 19.5921L80.8731 19.2921L82.111 17.2156L81.7193 16.3142Z" fill="#FFAA5B"/>
<path d="M23.9917 40.4796C24.2955 41.2691 24.6442 42.0489 25.035 42.817H25.7152L30.2236 48.6332L30.2421 49.8512C31.682 51.2637 33.276 52.542 34.989 53.6655L43.0816 46.8507C37.5843 42.201 33.8969 36.0342 32.9779 29.1613C31.5699 29.8256 30.2656 30.6535 29.1065 31.6297L22.9006 36.8557C23.1647 38.0581 23.5224 39.2685 23.9898 40.4828C23.9904 40.4816 23.9911 40.4806 23.9917 40.4796V40.4796Z" fill="#FF9838"/>
<path d="M40.3189 41.3659C41.7327 40.1754 42.759 38.6984 43.299 37.0773C44.0968 34.6824 41.4754 32.475 38.6314 33.1467C36.7063 33.6014 34.9524 34.4657 33.5386 35.6562L25.0352 42.817C25.3773 43.4892 25.7512 44.1528 26.1601 44.8048C26.1596 44.8057 26.1592 44.8065 26.1586 44.8073C27.3035 46.6334 28.6827 48.321 30.2422 49.8515L40.3189 41.3659Z" fill="#FFBA7E"/>
<path d="M26.1587 44.8073C27.3037 46.6334 28.6828 48.321 30.2423 49.8515L38.8849 42.5735C37.0051 40.2499 35.5058 37.6909 34.4596 34.9604C34.1393 35.1781 33.8313 35.4097 33.5386 35.6562L25.0352 42.817C25.3773 43.4892 25.7512 44.1527 26.1601 44.8048C26.1598 44.8057 26.1593 44.8064 26.1587 44.8073V44.8073Z" fill="#FFAA5B"/>
<path d="M72.7457 8.99451L71.4067 12.3878C70.7804 13.975 72.477 15.5209 74.4052 15.1199L79.608 14.0382C77.6376 12.1255 75.3334 10.4147 72.7457 8.99451Z" fill="#FFBA7E"/>
<path d="M77.1586 44.6204C74.8483 46.566 71.7491 47.7028 68.4839 47.8021L61.5728 48.0125L58.919 48.4041L44.9099 57.1532V58.0993C65.0862 63.6059 84.3999 51.89 87.2509 36.1218L77.1586 44.6204Z" fill="#FFAA5B"/>
<path d="M68.2092 55.6434C62.5123 55.6434 57.1304 54.5102 52.3607 52.4998L44.9097 57.1532V58.0993C54.6716 60.7635 64.2314 59.3959 71.8226 55.4884C70.6343 55.5898 69.4292 55.6434 68.2092 55.6434V55.6434Z" fill="#FF9838"/>
<path d="M85.5322 1.19278L80.4455 5.42051C81.4512 5.54512 82.2771 5.85784 82.8911 6.37492C87.5608 10.3073 78.2866 24.4928 62.1765 38.0592C46.0665 51.6256 29.221 59.4354 24.5513 55.5031C23.8044 54.8741 23.4158 53.9818 23.3534 52.8728L18.2563 57.1092C18.5556 58.7101 19.2857 60.0463 20.4818 61.0535C27.6701 67.1068 48.9435 59.0066 67.9974 42.9611C87.0513 26.9156 96.6704 9.00117 89.4823 2.94799C88.4435 2.0732 87.1099 1.495 85.5322 1.19278Z" fill="#FFE02F"/>
<path d="M85.0626 3.82159C84.6097 3.44025 84.0929 3.12303 83.5213 2.86368L80.4454 5.42019C81.4511 5.5448 82.277 5.85752 82.891 6.3746C87.5607 10.307 78.2864 24.4925 62.1764 38.0589C46.0665 51.6254 29.221 59.4352 24.5513 55.5029C23.8044 54.8739 23.4159 53.9816 23.3534 52.8726L20.105 55.5726C20.4511 56.244 20.9175 56.8362 21.5126 57.3376C28.079 62.8672 47.6284 55.3699 65.1772 40.5919C82.7261 25.8138 91.6291 9.35119 85.0626 3.82159Z" fill="#FBC700"/>
<path d="M45.0544 59.1112C70.8899 65.8369 95.1743 45.381 87.2 23.6238C88.2585 22.0118 89.1932 20.4239 89.989 18.8735C90.2329 18.3983 89.9731 17.8464 89.4088 17.6411C88.8445 17.436 88.1894 17.6545 87.9454 18.1297C87.1307 19.7171 86.1649 21.3461 85.0646 23.0017C85.0507 23.0196 85.0351 23.0363 85.0225 23.0552C68.7481 47.4099 30.9188 68.4963 21.2871 60.3867C17.8115 57.4598 18.7749 50.9435 23.8145 42.7511C24.1442 43.4298 24.5636 44.1985 24.9314 44.811C21.8029 50.2395 21.4038 54.159 23.7823 56.1618C32.0844 63.1531 65.9003 40.5194 79.9265 21.0746C82.9062 16.9438 87.7462 9.11838 83.6963 5.70795C81.3177 3.70488 76.6634 4.04098 70.2174 6.67561C69.4656 6.35539 68.5175 5.99192 67.771 5.73507C77.4993 1.49109 85.2377 0.679793 88.7132 3.60677C91.7002 6.12216 90.896 10.7107 89.6953 14.1174C89.5204 14.6137 89.8565 15.1354 90.4459 15.2828C91.0352 15.43 91.6549 15.1473 91.8298 14.6509C93.7982 9.06576 93.2649 4.78841 90.2875 2.28114C85.7989 -1.49875 76.5788 -0.547092 64.9492 4.88277C39.445 -1.75048 14.7044 18.2636 22.8024 40.3751C16.3546 50.1682 15.2243 57.9326 19.713 61.7123C25.6076 66.6764 37.759 62.5121 45.0544 59.1112ZM85.6349 25.8981C86.5711 29.1741 86.7596 32.4683 86.2432 35.656L76.3896 43.9537C74.2713 45.7377 71.4557 46.7703 68.4618 46.8615L64.6402 46.9778C72.4746 40.9341 80.1531 33.5183 85.6349 25.8981ZM62.0346 48.9331L68.5421 48.735C72.1003 48.6268 75.4463 47.3995 77.9639 45.2794L85.3953 39.0213C81.1689 51.8716 65.2017 61.333 47.7524 57.7933C52.7256 55.2549 57.5813 52.1827 62.0346 48.9331ZM25.3566 54.8362C23.9009 53.6103 24.2466 50.7365 26.2746 46.8337C28.4302 49.7849 31.1814 52.3178 34.1761 54.3054C29.9132 55.7816 26.7395 56.0004 25.3566 54.8362ZM26.3806 43.0211L34.3441 36.3151C35.62 35.2407 37.2127 34.4558 38.9501 34.0453C40.9591 33.5708 42.8092 35.1279 42.2453 36.8202C41.7579 38.2834 40.8259 39.6246 39.5499 40.6992L30.3416 48.4536C28.7502 46.7682 27.4448 44.9844 26.3806 43.0211ZM82.1221 7.0337C83.5047 8.19796 83.2448 10.8707 81.4916 14.4606C79.0842 11.8881 76.084 9.60121 72.6191 7.80662C77.2537 6.09878 80.6662 5.80769 82.1221 7.0337ZM72.4814 12.6797L73.3533 10.4703C74.8281 11.3655 76.2061 12.3543 77.5355 13.5037L74.1567 14.2063C73.6511 14.3113 73.1376 14.1819 72.7839 13.8596C72.4301 13.5372 72.3171 13.0961 72.4814 12.6797ZM71.4324 9.39273L70.3688 12.0885C69.9449 13.1629 70.2364 14.3005 71.1489 15.1319C72.0614 15.9634 73.3853 16.2977 74.6904 16.0264L79.2249 15.0836C79.6483 15.5125 80.0575 15.9517 80.4483 16.4028C79.9553 17.2482 79.4759 18.0002 78.9423 18.7891L66.3652 21.7424C64.0026 22.2973 61.8371 23.3624 60.103 24.8228L58.6326 26.0612C58.1979 26.4273 58.1979 27.0208 58.6327 27.3868C59.0673 27.753 59.7722 27.7529 60.2069 27.3868L61.6774 26.1484C63.141 24.9158 64.969 24.0166 66.9632 23.5484L77.2666 21.129C68.5768 32.6569 51.2251 47.0692 37.2412 53.1065L47.2239 44.7C48.9981 43.2058 50.2777 41.3369 50.9244 39.2952L51.8569 36.3502C52.4028 34.6266 53.4829 33.049 54.9805 31.7879L56.5152 30.4955C56.9499 30.1294 56.9499 29.5358 56.515 29.1699C56.0805 28.8037 55.3756 28.8038 54.9409 29.1699L53.4062 30.4622C51.6321 31.9562 50.3525 33.8252 49.7057 35.8671L48.7731 38.8121C48.2274 40.5354 47.1474 42.113 45.6495 43.3743L34.9268 52.4039C33.8156 51.6266 32.768 50.7823 31.7917 49.8843L41.1246 42.0249C42.6699 40.7235 43.7988 39.0989 44.3893 37.3267C45.422 34.2259 42.0323 31.37 38.3492 32.2403C36.2447 32.7374 34.3155 33.6881 32.7699 34.9896L25.4626 41.1427C24.8895 39.8283 24.4593 38.5502 24.1244 37.1622L29.912 32.2886C32.8036 29.8534 36.6448 28.4051 40.7281 28.2103C45.358 27.9897 49.7138 26.3474 52.993 23.586L62.2041 15.8292C64.8799 13.5758 66.6628 10.7488 67.3799 7.63039C68.8483 8.15972 70.1543 8.73229 71.4324 9.39273ZM59.1374 5.7072C58.3694 7.36304 57.1935 8.88165 55.6925 10.1457L47.308 17.2062C44.6898 19.411 41.235 20.7402 37.5796 20.9489C33.3872 21.1884 29.4267 22.711 26.4276 25.2364L23.9773 27.2998C26.8582 13.9419 42.0243 3.70676 59.1374 5.7072ZM23.5254 30.332L28.0021 26.5621C30.6203 24.3573 34.0752 23.0282 37.7304 22.8195C41.9229 22.58 45.8835 21.0574 48.8825 18.5319L57.267 11.4713C59.0921 9.9343 60.4969 8.06748 61.3691 6.03279C62.8358 6.29464 64.0691 6.59711 65.2648 6.94396C64.685 9.82406 63.0835 12.4376 60.6299 14.5036L51.4188 22.2604C48.527 24.6955 44.6857 26.1439 40.6025 26.3385C35.9725 26.5592 31.6168 28.2016 28.3379 30.9628L23.6858 34.8802C23.4746 33.355 23.4222 31.8347 23.5254 30.332Z" fill="black"/>
<path d="M68.7505 21.2559C68.7505 23.7519 68.2465 25.8399 67.2385 27.5199C66.2465 29.1839 64.8705 30.4399 63.1105 31.2879C61.3665 32.1359 59.3665 32.5599 57.1105 32.5599H53.1505V42.9999C52.5425 43.1119 51.9025 43.1839 51.2305 43.2159C50.5585 43.2479 49.9745 43.2639 49.4785 43.2639C49.0145 43.2639 48.4305 43.2479 47.7265 43.2159C47.0225 43.1839 46.3825 43.1119 45.8065 42.9999V10.4559L46.1425 10.1439C48.1585 10.0959 50.0385 10.0559 51.7825 10.0239C53.5425 9.97588 55.3185 9.95188 57.1105 9.95188C59.3665 9.95188 61.3665 10.3599 63.1105 11.1759C64.8705 11.9919 66.2465 13.2399 67.2385 14.9199C68.2465 16.5839 68.7505 18.6959 68.7505 21.2559ZM53.1505 15.5439V27.0399C53.8545 27.0079 54.5265 26.9839 55.1665 26.9679C55.8065 26.9519 56.2625 26.9439 56.5345 26.9439C57.8465 26.9439 58.8385 26.6399 59.5105 26.0319C60.1985 25.4079 60.6625 24.6559 60.9025 23.7759C61.1425 22.8959 61.2625 22.0559 61.2625 21.2559C61.2625 20.4879 61.1425 19.6639 60.9025 18.7839C60.6625 17.8879 60.1985 17.1359 59.5105 16.5279C58.8385 15.9039 57.8465 15.5919 56.5345 15.5919C56.0225 15.5919 55.4945 15.5919 54.9505 15.5919C54.4225 15.5759 53.8225 15.5599 53.1505 15.5439ZM89.152 38.1999C88.896 38.1999 88.624 38.1999 88.336 38.1999C88.064 38.1839 87.8 38.1679 87.544 38.1519L85.96 42.9999C85.512 43.1119 85.024 43.1919 84.496 43.2399C83.984 43.2879 83.448 43.3119 82.888 43.3119C82.264 43.3119 81.64 43.2639 81.016 43.1679C80.408 43.0879 79.912 42.9599 79.528 42.7839L79.264 42.3999L88.648 16.5759C89.416 16.4639 90.168 16.3919 90.904 16.3599C91.656 16.3279 92.344 16.3119 92.968 16.3119C93.528 16.3119 94.136 16.3279 94.792 16.3599C95.464 16.3919 96.208 16.4639 97.024 16.5759L106.144 42.6639C105.6 42.9039 104.92 43.0879 104.104 43.2159C103.288 43.3439 102.624 43.4079 102.112 43.4079C101.264 43.4079 100.448 43.2479 99.664 42.9279C98.896 42.5919 98.312 41.7439 97.912 40.3839L97.216 38.1519C96.944 38.1679 96.664 38.1839 96.376 38.1999C96.104 38.1999 95.84 38.1999 95.584 38.1999H89.152ZM90.088 30.3519L89.368 32.5359C89.624 32.5199 89.88 32.5119 90.136 32.5119C90.408 32.4959 90.672 32.4879 90.928 32.4879H94.048C94.288 32.4879 94.52 32.4959 94.744 32.5119C94.968 32.5119 95.192 32.5119 95.416 32.5119L94.768 30.4959C94.4 29.2639 94.024 27.8799 93.64 26.3439C93.272 24.8079 92.928 23.4159 92.608 22.1679H92.344C92.024 23.3679 91.656 24.7359 91.24 26.2719C90.84 27.7919 90.456 29.1519 90.088 30.3519ZM140.43 37.1199C140.334 39.3599 139.942 40.9199 139.254 41.7999C138.566 42.6799 137.342 43.1199 135.582 43.1199H126.054C124.758 43.1199 123.734 42.7519 122.982 42.0159C122.246 41.2799 121.878 40.2799 121.878 39.0159V16.6239L122.142 16.3599H124.926C126.318 16.3599 127.366 16.7119 128.07 17.4159C128.774 18.1039 129.126 19.2559 129.126 20.8719V37.3359C130.742 37.1919 132.206 37.1199 133.518 37.1199H140.43ZM175.492 37.1199C175.396 39.3599 175.004 40.9199 174.316 41.7999C173.628 42.6799 172.404 43.1199 170.644 43.1199H161.116C159.82 43.1199 158.796 42.7519 158.044 42.0159C157.308 41.2799 156.94 40.2799 156.94 39.0159V16.6239L157.204 16.3599H159.988C161.38 16.3599 162.428 16.7119 163.132 17.4159C163.836 18.1039 164.188 19.2559 164.188 20.8719V37.3359C165.804 37.1919 167.268 37.1199 168.58 37.1199H175.492ZM211.995 37.2399C211.995 39.4319 211.651 40.9519 210.963 41.7999C210.275 42.6479 209.123 43.0719 207.507 43.0719H196.275C194.979 43.0719 193.955 42.7039 193.203 41.9679C192.451 41.2319 192.075 40.2319 192.075 38.9679V16.8639L192.363 16.5759H211.107C211.219 17.1039 211.283 17.6079 211.299 18.0879C211.315 18.5679 211.323 19.0159 211.323 19.4319C211.323 19.8319 211.275 20.2959 211.179 20.8239C211.099 21.3519 210.963 21.8799 210.771 22.4079H202.179C201.491 22.4079 200.491 22.3999 199.179 22.3839C199.179 22.8639 199.187 23.2879 199.203 23.6559C199.219 24.0079 199.227 24.4319 199.227 24.9279V26.8959C200.523 26.8639 201.507 26.8479 202.179 26.8479H208.539C208.683 27.2799 208.779 27.7599 208.827 28.2879C208.891 28.8159 208.923 29.2639 208.923 29.6319C208.923 30.0479 208.891 30.5279 208.827 31.0719C208.779 31.5999 208.683 32.0719 208.539 32.4879H202.179C201.891 32.4879 201.475 32.4879 200.931 32.4879C200.387 32.4879 199.819 32.4879 199.227 32.4879V34.5279C199.227 35.0879 199.219 35.5599 199.203 35.9439C199.187 36.3279 199.179 36.7919 199.179 37.3359V37.3839C199.723 37.3359 200.227 37.3039 200.691 37.2879C201.171 37.2559 201.755 37.2399 202.443 37.2399H211.995ZM233.397 25.3119C233.397 24.7999 233.405 24.3279 233.421 23.8959C233.437 23.4479 233.445 22.9519 233.445 22.4079C233.109 22.4079 232.653 22.4159 232.077 22.4319C231.501 22.4479 231.045 22.4559 230.709 22.4559H226.173C226.061 21.9119 225.989 21.3999 225.957 20.9199C225.925 20.4399 225.909 19.9999 225.909 19.5999C225.909 19.1999 225.925 18.7279 225.957 18.1839C225.989 17.6399 226.061 17.1039 226.173 16.5759H247.653C247.765 16.9919 247.845 17.4639 247.893 17.9919C247.957 18.5039 247.989 18.9279 247.989 19.2639C247.989 20.2879 247.709 21.0799 247.149 21.6399C246.605 22.1839 245.685 22.4559 244.389 22.4559H243.189C242.869 22.4559 242.429 22.4479 241.869 22.4319C241.325 22.4159 240.901 22.4079 240.597 22.4079C240.597 22.9519 240.605 23.4479 240.621 23.8959C240.637 24.3279 240.645 24.7999 240.645 25.3119V42.9999C240.213 43.0959 239.629 43.1599 238.893 43.1919C238.157 43.2399 237.533 43.2639 237.021 43.2639C236.525 43.2639 235.917 43.2399 235.197 43.1919C234.493 43.1599 233.893 43.0959 233.397 42.9999V25.3119ZM260.757 40.9839C260.757 40.3919 260.869 39.7439 261.093 39.0399C261.333 38.3359 261.653 37.6799 262.053 37.0719C262.453 36.4479 262.893 35.9839 263.373 35.6799C264.541 36.3199 265.845 36.8719 267.285 37.3359C268.741 37.7999 270.181 38.0319 271.605 38.0319C272.565 38.0319 273.357 37.8319 273.981 37.4319C274.621 37.0319 274.941 36.4639 274.941 35.7279C274.941 35.2479 274.757 34.8159 274.389 34.4319C274.021 34.0319 273.389 33.6719 272.493 33.3519L268.461 31.7919C267.213 31.3279 266.061 30.7679 265.005 30.1119C263.965 29.4399 263.117 28.6239 262.461 27.6639C261.821 26.7039 261.501 25.5599 261.501 24.2319C261.501 21.7839 262.445 19.7839 264.333 18.2319C266.221 16.6799 268.781 15.8959 272.013 15.8799C273.821 15.8799 275.621 16.0959 277.413 16.5279C279.205 16.9439 280.709 17.4239 281.925 17.9679C281.925 18.9919 281.709 20.0159 281.277 21.0399C280.845 22.0479 280.261 22.8319 279.525 23.3919C278.341 22.8639 277.053 22.4239 275.661 22.0719C274.285 21.7199 273.037 21.5519 271.917 21.5679C271.021 21.5679 270.325 21.7599 269.829 22.1439C269.349 22.5279 269.109 22.9919 269.109 23.5359C269.109 24.0479 269.333 24.4399 269.781 24.7119C270.245 24.9679 270.829 25.2239 271.533 25.4799L275.541 27.0159C277.717 27.7999 279.453 28.8879 280.749 30.2799C282.045 31.6559 282.693 33.3519 282.693 35.3679C282.693 37.1439 282.213 38.6559 281.253 39.9039C280.309 41.1359 279.013 42.0799 277.365 42.7359C275.717 43.3759 273.845 43.6959 271.749 43.6959C269.269 43.6959 267.069 43.4079 265.149 42.8319C263.245 42.2559 261.781 41.6399 260.757 40.9839Z" fill="#E2E2E2"/>
</svg>
