<svg id="Capa_1" enable-background="new 0 0 512 512" height="512" viewBox="0 0 512 512" width="512" xmlns="http://www.w3.org/2000/svg" xmlns:xlink="http://www.w3.org/1999/xlink"><linearGradient id="SVGID_1_" gradientUnits="userSpaceOnUse" x1="256" x2="256" y1="512" y2="0"><stop offset="0" stop-color="#ffe59a"/><stop offset="1" stop-color="#ffffd5"/></linearGradient><linearGradient id="SVGID_2_" gradientUnits="userSpaceOnUse" x1="256" x2="256" y1="122.765" y2="389.235"><stop offset="0" stop-color="#fd5900"/><stop offset="1" stop-color="#ffde00"/></linearGradient><g><g><circle cx="256" cy="256" fill="url(#SVGID_1_)" r="256"/></g><g><g><path d="m398.118 247.118h-71.059c-3.366 0-6.436 1.9-7.946 4.91l-12.855 25.719c-1.509 3.027-4.545 4.901-7.946 4.901h-84.625c-3.4 0-6.436-1.874-7.946-4.909l-12.855-25.71c-1.509-3.01-4.58-4.91-7.946-4.91h-71.059c-4.91 0-8.882 3.973-8.882 8.882v124.353c0 4.909 3.973 8.882 8.882 8.882h284.235c4.91 0 8.882-3.973 8.882-8.882v-124.354c.002-4.91-3.971-8.882-8.88-8.882zm-106.589 88.823h-71.059c-4.91 0-8.882-3.973-8.882-8.882 0-4.91 3.973-8.882 8.882-8.882h71.059c4.91 0 8.882 3.973 8.882 8.882.001 4.909-3.972 8.882-8.882 8.882zm-82.769-91.877 10.409 20.818h73.661l10.392-20.801c4.563-9.09 13.688-14.729 23.837-14.729h44.412v-97.706c0-4.909-3.973-8.882-8.882-8.882h-213.177c-4.91 0-8.882 3.973-8.882 8.882v97.706h44.412c10.148.001 19.273 5.639 23.818 14.712zm-6.054-94.652h106.588c4.91 0 8.882 3.973 8.882 8.883 0 4.909-3.973 8.882-8.882 8.882h-106.588c-4.91 0-8.882-3.973-8.882-8.882 0-4.91 3.972-8.883 8.882-8.883zm0 35.529h106.588c4.91 0 8.882 3.973 8.882 8.882 0 4.91-3.973 8.882-8.882 8.882h-106.588c-4.91 0-8.882-3.973-8.882-8.882s3.972-8.882 8.882-8.882z" fill="url(#SVGID_2_)"/></g></g></g></svg>