<svg id="Capa_1" enable-background="new 0 0 512 512" height="512" viewBox="0 0 512 512" width="512" xmlns="http://www.w3.org/2000/svg"><g><path d="m442.417 418.152h-372.834c-8.284 0-15-6.716-15-15v-235c0-.971.094-1.94.282-2.893 18.822-95.758 103.411-165.259 201.135-165.259s182.313 69.501 201.135 165.258c.188.953.282 1.922.282 2.893v235c0 8.285-6.716 15.001-15 15.001z" fill="#ff7c48"/><path d="m442.417 418.152c8.284 0 15-6.716 15-15v-235c0-.971-.094-1.94-.282-2.893-18.822-95.758-103.411-165.259-201.135-165.259v418.152z" fill="#ff4a4a"/><path d="m96 512c-8.284 0-15-6.716-15-15s6.716-15 15-15c8.271 0 15-6.729 15-15v-30c0-8.284 6.716-15 15-15s15 6.716 15 15v30c0 24.813-20.187 45-45 45z" fill="#6c5d58"/><path d="m416 512c-24.813 0-45-20.187-45-45v-30c0-8.284 6.716-15 15-15s15 6.716 15 15v30c0 8.271 6.729 15 15 15 8.284 0 15 6.716 15 15s-6.716 15-15 15z" fill="#504541"/><path d="m411 392h-310v-90h310z" fill="#6c5d58"/><circle cx="221" cy="145" fill="#ffb655" r="15"/><circle cx="221" cy="215" fill="#ffb655" r="15"/><circle cx="291" cy="145" fill="#ff7c48" r="15"/><circle cx="291" cy="215" fill="#ff7c48" r="15"/><path d="m256 302h155v90h-155z" fill="#504541"/><path d="m404.5 452.011h-297c-37.22 0-67.5-30.28-67.5-67.5v-119.214c-23.51-7.509-40-29.635-40-54.778 0-16.165 6.863-31.675 18.83-42.555 12.133-11.031 27.866-16.243 44.293-14.676 29.09 2.774 51.876 28.857 51.876 59.38v164.344h282v-164.345c0-30.523 22.787-56.606 51.876-59.38 16.427-1.568 32.16 3.646 44.293 14.676 11.967 10.88 18.83 26.391 18.83 42.555 0 25.143-16.49 47.269-40 54.778v119.214c.002 37.221-30.278 67.501-67.498 67.501z" fill="#ffb655"/><path d="m493.17 167.964c-12.133-11.031-27.866-16.245-44.293-14.676-29.09 2.774-51.876 28.857-51.876 59.38v164.344h-141.001v75h148.5c37.22 0 67.5-30.28 67.5-67.5v-119.215c23.51-7.509 40-29.635 40-54.778 0-16.165-6.863-31.675-18.83-42.555z" fill="#ff7c48"/></g></svg>