<svg id="Layer_1" enable-background="new 0 0 512 512" height="512" viewBox="0 0 512 512" width="512" xmlns="http://www.w3.org/2000/svg"><g><g><g><g><g><g id="XMLID_1849_"><g id="XMLID_1850_"><g id="XMLID_1851_"><g id="XMLID_1852_"><g id="XMLID_1853_"><g id="XMLID_1854_"><g id="XMLID_1855_"><g id="XMLID_1856_"><g id="XMLID_1857_"><g id="XMLID_1858_"><g id="XMLID_1859_"><g id="XMLID_1860_"><g id="XMLID_1861_"><g id="XMLID_1862_"><g id="XMLID_1863_"><circle cx="256" cy="256" fill="#ffdd54" r="256"/></g></g></g></g></g></g></g></g></g></g></g></g></g></g></g></g></g></g></g><path d="m97.057 183.245 46.788 46.117-1.422 50.41-122.476 21.141 74.72 72.983-16.967 9.634 122.312 122.312c18.022 4.021 36.754 6.158 55.988 6.158 141.385 0 256-114.615 256-256 0-15.987-1.479-31.627-4.283-46.803l-92.774-92.774z" fill="#ffb454"/><g><g><g><g><g><path d="m188.53 157.64-66.82 225.89h-44.01l70.36-237.86z" fill="#7a242e"/></g></g><g><g><g><path d="m434.3 383.53h-44.01l-66.82-225.89 40.47-11.97z" fill="#63000d"/></g></g></g></g><path d="m97.057 116.423h317.885v66.822h-317.885z" fill="#af3345"/><path d="m256 116.42h158.94v66.82h-158.94z" fill="#93293b"/><g><path d="m19.947 253.508h162.453v47.405h-162.453z" fill="#af3345"/><path d="m329.6 253.508h162.454v47.405h-162.454z" fill="#93293b"/></g></g><g><g><g><path d="m256 116.42-114.657.003 114.657 94.664 114.657-94.664z" fill="#c8ffff"/></g></g><path d="m370.657 116.423-114.657 94.664v-94.667z" fill="#9ddff6"/></g></g></g></svg>